{"glyphs":{"0":{"ha":833,"x_min":0,"x_max":0,"o":"m 569 486 b 417 153 569 303 529 153 b 264 486 304 153 264 303 b 417 819 264 669 304 819 b 569 486 529 819 569 669 z m 76 486 b 417 -14 76 210 168 -14 b 757 486 665 -14 757 210 b 417 986 757 763 665 986 b 76 486 168 986 76 763 z "},"1":{"ha":590,"x_min":0,"x_max":0,"o":"m 76 656 l 257 756 l 257 0 l 444 0 l 444 972 l 313 972 l 76 833 z "},"2":{"ha":757,"x_min":0,"x_max":0,"o":"m 235 710 b 367 819 254 775 301 819 b 493 689 440 819 493 757 b 397 499 493 639 472 583 l 56 111 l 56 0 l 688 0 l 688 167 l 349 167 l 556 407 b 681 686 621 482 681 568 b 369 986 681 861 536 986 b 63 761 226 986 104 894 z "},"3":{"ha":796,"x_min":0,"x_max":0,"o":"m 35 138 b 357 -14 121 40 236 -14 b 719 329 558 -14 719 124 b 494 644 719 476 628 593 l 671 861 l 671 972 l 81 972 l 81 806 l 406 806 l 224 590 l 224 479 b 340 507 260 497 301 507 b 532 329 449 507 532 431 b 350 153 532 225 442 153 b 169 250 276 153 210 193 z "},"4":{"ha":854,"x_min":0,"x_max":0,"o":"m 535 972 l 28 333 l 28 222 l 479 222 l 479 0 l 667 0 l 667 222 l 826 222 l 826 389 l 667 389 l 667 972 z m 297 389 l 479 617 l 479 389 z "},"5":{"ha":785,"x_min":0,"x_max":0,"o":"m 56 111 b 350 -14 140 26 238 -14 b 708 322 546 -14 708 131 b 585 586 708 426 661 525 b 358 660 517 642 433 660 b 283 653 332 660 303 657 l 299 806 l 660 806 l 660 972 l 146 972 l 83 457 l 200 440 b 343 493 242 475 296 493 b 461 454 389 493 431 481 b 521 322 499 422 521 375 b 467 197 521 272 500 228 b 350 153 435 168 393 153 b 183 231 285 153 225 186 z "},"6":{"ha":819,"x_min":0,"x_max":0,"o":"m 388 972 l 158 586 b 63 318 107 500 63 414 b 418 -14 63 115 236 -14 b 764 328 607 -14 764 139 b 424 663 764 522 608 663 l 411 663 l 594 972 z m 301 472 b 406 496 338 489 371 496 b 579 322 510 496 579 415 b 415 153 579 229 511 153 b 243 318 321 153 243 226 b 301 472 243 383 275 436 z "},"7":{"ha":743,"x_min":0,"x_max":0,"o":"m 63 806 l 478 806 l 85 0 l 283 0 l 701 861 l 701 972 l 63 972 z "},"8":{"ha":833,"x_min":0,"x_max":0,"o":"m 417 618 b 319 718 358 618 319 663 b 417 819 319 774 358 819 b 514 718 475 819 514 774 b 417 618 514 663 475 618 z m 417 153 b 257 301 325 153 257 218 b 417 451 257 385 325 451 b 576 301 508 451 576 385 b 417 153 576 218 508 153 z m 417 -14 b 764 301 611 -14 764 125 b 624 547 764 415 704 494 b 701 718 665 585 701 639 b 417 986 701 867 581 986 b 132 718 253 986 132 867 b 210 547 132 639 168 585 b 69 301 129 494 69 415 b 417 -14 69 125 222 -14 z "},"9":{"ha":819,"x_min":0,"x_max":0,"o":"m 432 0 l 661 386 b 757 654 713 472 757 558 b 401 986 757 857 583 986 b 56 644 213 986 56 833 b 396 310 56 450 211 310 l 408 310 l 225 0 z m 518 500 b 414 476 482 483 449 476 b 240 650 310 476 240 557 b 404 819 240 743 308 819 b 576 654 499 819 576 746 b 518 500 576 589 544 536 z "},"C":{"ha":993,"x_min":0,"x_max":0,"o":"m 553 819 b 789 719 649 819 731 778 l 910 847 b 554 986 822 932 699 986 b 42 486 251 986 42 765 b 557 -14 42 207 254 -14 b 965 172 735 -14 879 63 l 836 288 b 561 153 779 214 688 153 b 229 486 374 153 229 297 b 553 819 229 671 368 819 z "},"D":{"ha":986,"x_min":0,"x_max":0,"o":"m 757 486 b 686 275 757 406 731 331 b 438 167 632 207 553 167 l 299 167 l 299 806 l 438 806 b 686 697 553 806 632 765 b 757 486 731 642 757 567 z m 111 972 l 111 0 l 417 0 b 751 92 571 0 672 33 b 944 486 871 181 944 325 b 751 881 944 647 871 792 b 417 972 672 939 571 972 z "},"E":{"ha":764,"x_min":0,"x_max":0,"o":"m 694 806 l 694 972 l 111 972 l 111 0 l 708 0 l 708 167 l 299 167 l 299 438 l 597 438 l 597 604 l 299 604 l 299 806 z "},"F":{"ha":722,"x_min":0,"x_max":0,"o":"m 694 806 l 694 972 l 111 972 l 111 0 l 299 0 l 299 438 l 597 438 l 597 604 l 299 604 l 299 806 z "},"G":{"ha":1049,"x_min":0,"x_max":0,"o":"m 553 819 b 789 719 649 819 731 778 l 910 847 b 554 986 822 932 699 986 b 42 486 251 986 42 765 b 557 -14 42 207 254 -14 b 965 172 735 -14 879 63 l 965 604 l 528 604 l 528 438 l 778 438 l 778 228 b 561 153 722 183 650 153 b 229 486 374 153 229 297 b 553 819 229 671 368 819 z "},"H":{"ha":1083,"x_min":0,"x_max":0,"o":"m 785 0 l 972 0 l 972 972 l 785 972 l 785 604 l 299 604 l 299 972 l 111 972 l 111 0 l 299 0 l 299 438 l 785 438 z "},"I":{"ha":410,"x_min":0,"x_max":0,"o":"m 111 0 l 299 0 l 299 972 l 111 972 z "},"J":{"ha":694,"x_min":0,"x_max":0,"o":"m 590 972 l 403 972 l 403 285 b 381 192 403 233 394 210 b 296 153 361 167 331 153 b 182 238 232 153 197 199 l 21 157 b 294 -14 65 53 168 -14 b 560 133 407 -14 510 40 b 590 306 582 175 590 228 z "},"K":{"ha":965,"x_min":0,"x_max":0,"o":"m 725 0 l 965 0 l 486 528 l 914 972 l 667 972 l 299 583 l 299 972 l 111 972 l 111 0 l 299 0 l 299 478 z "},"L":{"ha":743,"x_min":0,"x_max":0,"o":"m 111 0 l 708 0 l 708 167 l 299 167 l 299 972 l 111 972 z "},"M":{"ha":1194,"x_min":0,"x_max":0,"o":"m 243 972 l 111 972 l 111 0 l 299 0 l 299 542 l 532 160 l 663 160 l 896 542 l 896 0 l 1083 0 l 1083 972 l 951 972 l 597 390 z "},"N":{"ha":1083,"x_min":0,"x_max":0,"o":"m 111 0 l 299 0 l 299 633 l 840 0 l 972 0 l 972 972 l 785 972 l 785 339 l 243 972 l 111 972 z "},"O":{"ha":1097,"x_min":0,"x_max":0,"o":"m 229 486 b 549 819 229 669 365 819 b 868 486 732 819 868 669 b 549 153 868 303 732 153 b 229 486 365 153 229 303 z m 42 486 b 549 -14 42 210 249 -14 b 1056 486 849 -14 1056 210 b 549 986 1056 763 849 986 b 42 486 249 986 42 763 z "},"P":{"ha":833,"x_min":0,"x_max":0,"o":"m 476 396 b 729 482 601 396 676 426 b 806 683 778 532 806 607 b 729 885 806 760 778 835 b 476 972 675 942 601 972 l 111 972 l 111 0 l 299 0 l 299 396 z m 299 563 l 299 806 l 468 806 b 586 767 532 806 564 790 b 618 683 607 744 618 715 b 586 601 618 651 607 624 b 468 563 564 578 532 563 z "},"Q":{"ha":1111,"x_min":0,"x_max":0,"o":"m 42 486 b 549 -14 42 210 249 -14 b 838 69 660 -14 757 17 l 899 0 l 1111 0 l 953 176 b 1056 486 1018 261 1056 369 b 549 986 1056 763 849 986 b 42 486 249 986 42 763 z m 229 486 b 549 819 229 669 365 819 b 868 486 732 819 868 669 b 826 319 868 425 853 368 l 626 544 l 508 442 l 719 203 b 549 153 671 171 613 153 b 229 486 365 153 229 303 z "},"R":{"ha":931,"x_min":0,"x_max":0,"o":"m 367 431 l 713 0 l 944 0 l 581 446 b 678 503 619 458 651 478 b 764 701 731 553 764 624 b 678 900 764 779 731 850 b 465 972 629 944 565 972 l 111 972 l 111 0 l 299 0 l 299 431 z m 299 597 l 299 806 l 454 806 b 549 775 508 806 532 793 b 576 700 565 757 576 729 b 549 626 576 672 565 644 b 454 597 532 608 508 597 z "},"S":{"ha":743,"x_min":0,"x_max":0,"o":"m 14 132 b 365 -14 114 40 235 -14 b 694 278 540 -14 694 106 b 246 714 694 606 246 557 b 396 819 246 789 325 819 b 564 756 460 819 525 792 l 661 894 b 379 986 569 963 478 986 b 58 713 218 986 58 886 b 196 492 58 603 119 536 b 507 275 326 415 507 400 b 365 153 507 204 449 153 b 136 260 276 153 192 199 z "},"T":{"ha":771,"x_min":0,"x_max":0,"o":"m 35 972 l 35 806 l 292 806 l 292 0 l 479 0 l 479 806 l 736 806 l 736 972 z "},"U":{"ha":1042,"x_min":0,"x_max":0,"o":"m 521 -14 b 813 86 631 -14 738 19 b 938 410 893 158 938 261 l 938 972 l 750 972 l 750 396 b 686 215 750 307 726 253 b 521 153 644 175 586 153 b 356 215 456 153 397 175 b 292 396 315 253 292 307 l 292 972 l 104 972 l 104 410 b 229 86 104 261 149 158 b 521 -14 304 19 411 -14 z "},"V":{"ha":946,"x_min":0,"x_max":0,"o":"m 407 0 l 539 0 l 932 972 l 739 972 l 472 308 l 207 972 l 14 972 z "},"W":{"ha":1368,"x_min":0,"x_max":0,"o":"m 336 0 l 468 0 l 683 615 l 900 0 l 1032 0 l 1354 972 l 1165 972 l 964 365 l 750 972 l 618 972 l 404 365 l 203 972 l 14 972 z "},"X":{"ha":944,"x_min":0,"x_max":0,"o":"m 882 972 l 667 972 l 472 665 l 278 972 l 63 972 l 357 518 l 21 0 l 236 0 l 472 369 l 708 0 l 924 0 l 586 518 z "},"Y":{"ha":868,"x_min":0,"x_max":0,"o":"m 861 972 l 647 972 l 435 631 l 221 972 l 7 972 l 340 440 l 340 0 l 528 0 l 528 440 z "},"Z":{"ha":854,"x_min":0,"x_max":0,"o":"m 56 0 l 806 0 l 806 167 l 304 167 l 778 861 l 778 972 l 97 972 l 97 806 l 528 806 l 56 111 z "},"[":{"ha":632,"x_min":0,"x_max":0,"o":"m 194 -278 l 576 -278 l 576 -118 l 361 -118 l 361 813 l 576 813 l 576 972 l 194 972 z "},"]":{"ha":632,"x_min":0,"x_max":0,"o":"m 438 972 l 56 972 l 56 813 l 271 813 l 271 -118 l 56 -118 l 56 -278 l 438 -278 z "},"Æ":{"ha":1333,"x_min":0,"x_max":0,"o":"m 1264 806 l 1264 972 l 571 972 l -14 0 l 196 0 l 325 215 l 681 215 l 681 0 l 1278 0 l 1278 167 l 868 167 l 868 438 l 1181 438 l 1181 604 l 868 604 l 868 806 z m 425 382 l 681 807 l 681 382 z "},"Œ":{"ha":1521,"x_min":0,"x_max":0,"o":"m 1451 806 l 1451 972 l 868 972 l 868 876 b 549 986 783 944 674 986 b 42 486 256 986 42 763 b 549 -14 42 210 256 -14 b 868 96 674 -14 783 26 l 868 0 l 1465 0 l 1465 167 l 1056 167 l 1056 438 l 1368 438 l 1368 604 l 1056 604 l 1056 806 z m 229 486 b 549 819 229 669 365 819 b 868 486 732 819 868 669 b 549 153 868 303 732 153 b 229 486 365 153 229 303 z "},"\\":{"ha":632,"x_min":0,"x_max":0,"o":"m 7 972 l 458 0 l 625 0 l 174 972 z "},"/":{"ha":632,"x_min":0,"x_max":0,"o":"m 174 0 l 625 972 l 458 972 l 7 0 z "},"|":{"ha":333,"x_min":0,"x_max":0,"o":"m 250 972 l 83 972 l 83 -278 l 250 -278 z "},"a":{"ha":854,"x_min":0,"x_max":0,"o":"m 569 236 b 407 153 535 186 475 153 b 229 336 306 153 229 231 b 403 521 229 433 297 521 b 569 438 472 521 532 488 z m 750 674 l 576 674 l 576 619 b 379 688 524 663 456 688 b 49 336 196 688 49 535 b 135 100 49 244 82 161 b 389 -14 194 31 289 -14 b 576 54 457 -14 521 7 l 576 0 l 750 0 z "},"b":{"ha":854,"x_min":0,"x_max":0,"o":"m 285 438 b 451 521 322 488 382 521 b 625 336 557 521 625 433 b 447 153 625 231 549 153 b 285 236 379 153 319 186 z m 278 0 l 278 54 b 465 -14 333 7 397 -14 b 719 100 565 -14 660 31 b 806 336 772 161 806 244 b 475 688 806 535 658 688 b 285 625 401 688 338 667 l 285 986 l 104 986 l 104 0 z "},"c":{"ha":750,"x_min":0,"x_max":0,"o":"m 576 242 b 415 153 547 197 489 153 b 229 336 306 153 229 231 b 411 521 229 439 307 521 b 567 440 476 521 531 488 l 694 553 b 411 688 632 633 528 688 b 49 336 206 688 49 532 b 410 -14 49 142 201 -14 b 715 138 536 -14 636 32 z "},"d":{"ha":854,"x_min":0,"x_max":0,"o":"m 569 236 b 407 153 535 186 475 153 b 229 336 306 153 229 231 b 403 521 229 433 297 521 b 569 438 472 521 532 488 z m 750 0 l 750 986 l 569 986 l 569 625 b 379 688 517 667 453 688 b 49 336 196 688 49 535 b 135 100 49 244 82 161 b 389 -14 194 31 289 -14 b 576 54 457 -14 521 7 l 576 0 z "},"e":{"ha":743,"x_min":0,"x_max":0,"o":"m 575 210 b 406 132 543 175 482 132 b 224 292 310 132 233 197 l 690 292 b 694 343 693 307 694 325 b 376 688 694 531 563 688 b 49 336 176 688 49 524 b 401 -14 49 125 200 -14 b 678 107 506 -14 613 29 z m 232 424 b 376 542 240 485 301 542 b 510 424 450 542 504 483 z "},"f":{"ha":639,"x_min":0,"x_max":0,"o":"m 590 988 b 483 1000 553 997 519 1000 b 274 921 392 1000 321 967 b 201 701 226 875 201 810 l 201 674 l 28 674 l 28 521 l 201 521 l 201 0 l 382 0 l 382 521 l 590 521 l 590 674 l 382 674 l 382 694 b 407 801 382 757 392 782 b 508 840 429 828 464 840 b 563 833 525 840 547 838 z "},"g":{"ha":854,"x_min":0,"x_max":0,"o":"m 750 674 l 576 674 l 576 619 b 379 688 524 663 456 688 b 49 336 196 688 49 535 b 133 100 49 244 81 161 b 389 -14 193 31 289 -14 b 569 47 457 -14 515 6 l 569 25 b 528 -133 569 -61 556 -103 b 390 -187 497 -169 449 -187 b 181 -90 279 -187 217 -129 l 67 -208 b 390 -347 133 -286 258 -347 b 689 -212 519 -347 628 -297 b 750 38 729 -156 750 -83 z m 569 236 b 407 153 535 186 475 153 b 229 336 306 153 229 231 b 403 521 229 433 297 521 b 569 438 472 521 532 488 z "},"h":{"ha":861,"x_min":0,"x_max":0,"o":"m 285 438 b 449 521 310 472 372 521 b 550 483 490 521 526 507 b 590 357 575 458 590 424 l 590 0 l 771 0 l 771 343 b 701 579 771 458 746 526 b 468 688 646 646 561 688 b 285 625 399 688 335 664 l 285 986 l 104 986 l 104 0 l 285 0 z "},"i":{"ha":389,"x_min":0,"x_max":0,"o":"m 285 674 l 104 674 l 104 0 l 285 0 z m 76 913 b 194 797 76 847 129 797 b 313 913 260 797 313 847 b 194 1028 313 978 260 1028 b 76 913 129 1028 76 978 z "},"j":{"ha":444,"x_min":0,"x_max":0,"o":"m -28 -337 b 63 -347 -8 -342 26 -347 b 292 -247 179 -347 250 -306 b 340 -35 326 -197 340 -136 l 340 674 l 160 674 l 160 -35 b 133 -150 160 -101 151 -131 b 47 -181 114 -171 85 -181 b 0 -174 38 -181 13 -178 z m 132 913 b 250 797 132 847 185 797 b 368 913 315 797 368 847 b 250 1028 368 978 315 1028 b 132 913 185 1028 132 978 z "},"k":{"ha":826,"x_min":0,"x_max":0,"o":"m 771 674 l 517 674 l 285 456 l 285 986 l 104 986 l 104 0 l 285 0 l 285 292 l 569 0 l 813 0 l 442 371 z "},"l":{"ha":389,"x_min":0,"x_max":0,"o":"m 285 986 l 104 986 l 104 0 l 285 0 z "},"m":{"ha":1319,"x_min":0,"x_max":0,"o":"m 285 0 l 285 438 b 442 521 310 469 365 521 b 543 479 476 521 515 510 b 576 364 564 456 576 425 l 576 0 l 757 0 l 757 357 b 751 432 757 385 754 410 b 914 521 775 467 836 521 b 1015 479 949 521 988 510 b 1049 364 1036 456 1049 425 l 1049 0 l 1229 0 l 1229 357 b 1161 579 1229 457 1204 526 b 925 688 1107 646 1018 688 b 686 582 825 688 740 639 b 460 688 633 646 551 688 b 278 619 394 688 331 667 l 278 674 l 104 674 l 104 0 z "},"n":{"ha":861,"x_min":0,"x_max":0,"o":"m 285 0 l 285 438 b 449 521 310 472 372 521 b 550 483 490 521 526 507 b 590 357 575 458 590 424 l 590 0 l 771 0 l 771 343 b 701 579 771 458 746 526 b 468 688 646 646 561 688 b 278 619 393 688 329 661 l 278 674 l 104 674 l 104 0 z "},"o":{"ha":814,"x_min":0,"x_max":0,"o":"m 49 336 b 407 -14 49 142 203 -14 b 765 336 611 -14 765 142 b 407 688 765 531 611 688 b 49 336 203 688 49 531 z m 229 336 b 407 521 229 438 301 521 b 585 336 513 521 585 438 b 407 153 585 235 513 153 b 229 336 301 153 229 235 z "},"q":{"ha":854,"x_min":0,"x_max":0,"o":"m 750 674 l 576 674 l 576 619 b 379 688 524 663 456 688 b 49 336 196 688 49 535 b 133 100 49 244 81 161 b 389 -14 193 31 289 -14 b 569 47 457 -14 515 6 l 569 -333 l 750 -333 z m 569 236 b 407 153 535 186 475 153 b 229 336 306 153 229 231 b 403 521 229 433 297 521 b 569 438 472 521 532 488 z "},"p":{"ha":854,"x_min":0,"x_max":0,"o":"m 104 -333 l 285 -333 l 285 47 b 465 -14 339 6 397 -14 b 721 100 565 -14 661 31 b 806 336 774 161 806 244 b 475 688 806 535 658 688 b 278 619 399 688 331 663 l 278 674 l 104 674 z m 285 438 b 451 521 322 488 382 521 b 625 336 557 521 625 433 b 447 153 625 231 549 153 b 285 236 379 153 319 186 z "},"r":{"ha":569,"x_min":0,"x_max":0,"o":"m 535 682 b 474 688 515 685 500 688 b 278 606 392 688 318 656 l 278 674 l 104 674 l 104 0 l 285 0 l 285 424 b 449 521 307 464 369 521 b 514 514 475 521 501 518 z "},"s":{"ha":639,"x_min":0,"x_max":0,"o":"m 38 76 b 308 -14 117 18 215 -14 b 576 194 450 -14 576 65 b 250 481 576 428 250 393 b 342 535 250 515 292 535 b 471 489 390 535 436 514 l 556 619 b 328 688 511 654 415 688 b 69 478 194 688 69 607 b 396 196 69 261 396 297 b 310 139 396 163 358 139 b 125 206 242 139 171 164 z "},"t":{"ha":688,"x_min":0,"x_max":0,"o":"m 583 153 b 510 146 571 150 536 146 b 418 179 465 146 436 158 b 396 264 403 197 396 222 l 396 521 l 618 521 l 618 674 l 396 674 l 396 861 l 215 861 l 215 674 l 28 674 l 28 521 l 215 521 l 215 285 b 265 83 215 189 231 129 b 499 -14 311 22 390 -14 b 611 0 533 -14 588 -8 z "},"u":{"ha":847,"x_min":0,"x_max":0,"o":"m 563 674 l 563 236 b 406 153 538 204 482 153 b 304 194 371 153 332 164 b 271 310 283 218 271 249 l 271 674 l 90 674 l 90 317 b 158 94 90 217 115 147 b 388 -14 211 29 294 -14 b 569 54 453 -14 517 7 l 569 0 l 743 0 l 743 674 z "},"v":{"ha":772,"x_min":0,"x_max":0,"o":"m 201 674 l 14 674 l 324 0 l 449 0 l 758 674 l 571 674 l 386 263 z "},"w":{"ha":1183,"x_min":0,"x_max":0,"o":"m 592 392 l 761 0 l 886 0 l 1169 674 l 988 674 l 822 281 l 654 674 l 529 674 l 360 281 l 196 674 l 14 674 l 297 0 l 422 0 z "},"x":{"ha":758,"x_min":0,"x_max":0,"o":"m 246 674 l 39 674 l 265 360 l 7 0 l 221 0 l 379 228 l 538 0 l 751 0 l 493 360 l 719 674 l 513 674 l 379 482 z "},"y":{"ha":796,"x_min":0,"x_max":0,"o":"m 318 -333 l 782 674 l 592 674 l 410 269 l 213 674 l 14 674 l 315 68 l 129 -333 z "},"z":{"ha":736,"x_min":0,"x_max":0,"o":"m 639 674 l 97 674 l 97 521 l 392 521 l 69 111 l 69 0 l 667 0 l 667 153 l 313 153 l 639 563 z "},"Ä":{"ha":965,"x_min":0,"x_max":0,"o":"m 226 1169 b 338 1061 226 1108 276 1061 b 449 1169 399 1061 449 1108 b 338 1278 449 1231 399 1278 b 226 1169 276 1278 226 1231 z m 518 1169 b 629 1061 518 1108 568 1061 b 740 1169 690 1061 740 1108 b 629 1278 740 1231 690 1278 b 518 1169 568 1278 518 1231 z m 196 0 l 288 215 l 678 215 l 769 0 l 965 0 l 549 972 l 417 972 l 0 0 z m 482 669 l 606 382 l 358 382 z "},"Å":{"ha":965,"x_min":0,"x_max":0,"o":"m 329 1181 b 482 1028 329 1096 397 1028 b 635 1181 567 1028 635 1096 b 482 1333 635 1265 567 1333 b 329 1181 397 1333 329 1265 z m 440 1181 b 482 1222 440 1204 458 1222 b 524 1181 506 1222 524 1204 b 482 1139 524 1157 506 1139 b 440 1181 458 1139 440 1157 z m 196 0 l 288 215 l 678 215 l 769 0 l 965 0 l 549 972 l 417 972 l 0 0 z m 482 669 l 606 382 l 358 382 z "},"Ç":{"ha":993,"x_min":0,"x_max":0,"o":"m 386 -208 l 567 -208 l 603 -11 b 965 172 760 0 886 72 l 836 288 b 561 153 779 214 688 153 b 229 486 374 153 229 297 b 553 819 229 671 368 819 b 789 719 649 819 731 778 l 910 847 b 554 986 822 932 699 986 b 42 486 251 986 42 765 b 468 -7 42 235 213 31 z "},"Ñ":{"ha":1083,"x_min":0,"x_max":0,"o":"m 111 0 l 299 0 l 299 633 l 840 0 l 972 0 l 972 972 l 785 972 l 785 339 l 243 972 l 111 972 z m 688 1278 b 632 1208 683 1239 665 1208 b 425 1278 572 1208 508 1278 b 271 1092 325 1278 271 1192 l 382 1069 b 438 1139 386 1108 404 1139 b 644 1069 497 1139 561 1069 b 799 1256 744 1069 799 1156 z "},"Ö":{"ha":1097,"x_min":0,"x_max":0,"o":"m 229 486 b 549 819 229 669 365 819 b 868 486 732 819 868 669 b 549 153 868 303 732 153 b 229 486 365 153 229 303 z m 42 486 b 549 -14 42 210 249 -14 b 1056 486 849 -14 1056 210 b 549 986 1056 763 849 986 b 42 486 249 986 42 763 z m 292 1169 b 403 1061 292 1108 342 1061 b 514 1169 464 1061 514 1108 b 403 1278 514 1231 464 1278 b 292 1169 342 1278 292 1231 z m 583 1169 b 694 1061 583 1108 633 1061 b 806 1169 756 1061 806 1108 b 694 1278 806 1231 756 1278 b 583 1169 633 1278 583 1231 z "},"Ü":{"ha":1042,"x_min":0,"x_max":0,"o":"m 521 -14 b 813 86 631 -14 738 19 b 938 410 893 158 938 261 l 938 972 l 750 972 l 750 396 b 686 215 750 307 726 253 b 521 153 644 175 586 153 b 356 215 456 153 397 175 b 292 396 315 253 292 307 l 292 972 l 104 972 l 104 410 b 229 86 104 261 149 158 b 521 -14 304 19 411 -14 z m 264 1169 b 375 1061 264 1108 314 1061 b 486 1169 436 1061 486 1108 b 375 1278 486 1231 436 1278 b 264 1169 314 1278 264 1231 z m 556 1169 b 667 1061 556 1108 606 1061 b 778 1169 728 1061 778 1108 b 667 1278 778 1231 728 1278 b 556 1169 606 1278 556 1231 z "},"á":{"ha":854,"x_min":0,"x_max":0,"o":"m 458 1000 l 361 778 l 486 778 l 653 1000 z m 569 236 b 407 153 535 186 475 153 b 229 336 306 153 229 231 b 403 521 229 433 297 521 b 569 438 472 521 532 488 z m 750 674 l 576 674 l 576 619 b 379 688 524 663 456 688 b 49 336 196 688 49 535 b 135 100 49 244 82 161 b 389 -14 194 31 289 -14 b 576 54 457 -14 521 7 l 576 0 l 750 0 z "},"à":{"ha":854,"x_min":0,"x_max":0,"o":"m 264 1000 l 431 778 l 556 778 l 458 1000 z m 569 236 b 407 153 535 186 475 153 b 229 336 306 153 229 231 b 403 521 229 433 297 521 b 569 438 472 521 532 488 z m 750 674 l 576 674 l 576 619 b 379 688 524 663 456 688 b 49 336 196 688 49 535 b 135 100 49 244 82 161 b 389 -14 194 31 289 -14 b 576 54 457 -14 521 7 l 576 0 l 750 0 z "},"â":{"ha":854,"x_min":0,"x_max":0,"o":"m 340 1000 l 201 778 l 326 778 l 438 903 l 549 778 l 674 778 l 535 1000 z m 569 236 b 407 153 535 186 475 153 b 229 336 306 153 229 231 b 403 521 229 433 297 521 b 569 438 472 521 532 488 z m 750 674 l 576 674 l 576 619 b 379 688 524 663 456 688 b 49 336 196 688 49 535 b 135 100 49 244 82 161 b 389 -14 194 31 289 -14 b 576 54 457 -14 521 7 l 576 0 l 750 0 z "},"ä":{"ha":854,"x_min":0,"x_max":0,"o":"m 181 892 b 292 783 181 831 231 783 b 403 892 353 783 403 831 b 292 1000 403 953 353 1000 b 181 892 231 1000 181 953 z m 472 892 b 583 783 472 831 522 783 b 694 892 644 783 694 831 b 583 1000 694 953 644 1000 b 472 892 522 1000 472 953 z m 569 236 b 407 153 535 186 475 153 b 229 336 306 153 229 231 b 403 521 229 433 297 521 b 569 438 472 521 532 488 z m 750 674 l 576 674 l 576 619 b 379 688 524 663 456 688 b 49 336 196 688 49 535 b 135 100 49 244 82 161 b 389 -14 194 31 289 -14 b 576 54 457 -14 521 7 l 576 0 l 750 0 z "},"ã":{"ha":854,"x_min":0,"x_max":0,"o":"m 597 1000 b 542 931 593 961 575 931 b 335 1000 482 931 418 1000 b 181 814 235 1000 181 914 l 292 792 b 347 861 296 831 314 861 b 554 792 407 861 471 792 b 708 978 654 792 708 878 z m 569 236 b 407 153 535 186 475 153 b 229 336 306 153 229 231 b 403 521 229 433 297 521 b 569 438 472 521 532 488 z m 750 674 l 576 674 l 576 619 b 379 688 524 663 456 688 b 49 336 196 688 49 535 b 135 100 49 244 82 161 b 389 -14 194 31 289 -14 b 576 54 457 -14 521 7 l 576 0 l 750 0 z "},"å":{"ha":854,"x_min":0,"x_max":0,"o":"m 299 903 b 451 750 299 818 367 750 b 604 903 536 750 604 818 b 451 1056 604 988 536 1056 b 299 903 367 1056 299 988 z m 410 903 b 451 944 410 926 428 944 b 493 903 475 944 493 926 b 451 861 493 879 475 861 b 410 903 428 861 410 879 z m 569 236 b 407 153 535 186 475 153 b 229 336 306 153 229 231 b 403 521 229 433 297 521 b 569 438 472 521 532 488 z m 750 674 l 576 674 l 576 619 b 379 688 524 663 456 688 b 49 336 196 688 49 535 b 135 100 49 244 82 161 b 389 -14 194 31 289 -14 b 576 54 457 -14 521 7 l 576 0 l 750 0 z "},"é":{"ha":743,"x_min":0,"x_max":0,"o":"m 413 1000 l 315 778 l 440 778 l 607 1000 z m 575 210 b 406 132 543 175 482 132 b 224 292 310 132 233 197 l 690 292 b 694 343 693 307 694 325 b 376 688 694 531 563 688 b 49 336 176 688 49 524 b 401 -14 49 125 200 -14 b 678 107 506 -14 613 29 z m 232 424 b 376 542 240 485 301 542 b 510 424 450 542 504 483 z "},"è":{"ha":743,"x_min":0,"x_max":0,"o":"m 163 1000 l 329 778 l 454 778 l 357 1000 z m 575 210 b 406 132 543 175 482 132 b 224 292 310 132 233 197 l 690 292 b 694 343 693 307 694 325 b 376 688 694 531 563 688 b 49 336 176 688 49 524 b 401 -14 49 125 200 -14 b 678 107 506 -14 613 29 z m 232 424 b 376 542 240 485 301 542 b 510 424 450 542 504 483 z "},"ê":{"ha":743,"x_min":0,"x_max":0,"o":"m 288 1000 l 149 778 l 274 778 l 385 903 l 496 778 l 621 778 l 482 1000 z m 575 210 b 406 132 543 175 482 132 b 224 292 310 132 233 197 l 690 292 b 694 343 693 307 694 325 b 376 688 694 531 563 688 b 49 336 176 688 49 524 b 401 -14 49 125 200 -14 b 678 107 506 -14 613 29 z m 232 424 b 376 542 240 485 301 542 b 510 424 450 542 504 483 z "},"ë":{"ha":743,"x_min":0,"x_max":0,"o":"m 128 892 b 239 783 128 831 178 783 b 350 892 300 783 350 831 b 239 1000 350 953 300 1000 b 128 892 178 1000 128 953 z m 419 892 b 531 783 419 831 469 783 b 642 892 592 783 642 831 b 531 1000 642 953 592 1000 b 419 892 469 1000 419 953 z m 575 210 b 406 132 543 175 482 132 b 224 292 310 132 233 197 l 690 292 b 694 343 693 307 694 325 b 376 688 694 531 563 688 b 49 336 176 688 49 524 b 401 -14 49 125 200 -14 b 678 107 506 -14 613 29 z m 232 424 b 376 542 240 485 301 542 b 510 424 450 542 504 483 z "},"í":{"ha":389,"x_min":0,"x_max":0,"o":"m 285 674 l 104 674 l 104 0 l 285 0 z m 215 1000 l 118 778 l 243 778 l 410 1000 z "},"ı":{"ha":389,"x_min":0,"x_max":0,"o":"m 285 674 l 104 674 l 104 0 l 285 0 z "},"ì":{"ha":389,"x_min":0,"x_max":0,"o":"m 285 674 l 104 674 l 104 0 l 285 0 z m -21 1000 l 146 778 l 271 778 l 174 1000 z "},"î":{"ha":389,"x_min":0,"x_max":0,"o":"m 285 674 l 104 674 l 104 0 l 285 0 z m 97 1000 l -42 778 l 83 778 l 194 903 l 306 778 l 431 778 l 292 1000 z "},"ï":{"ha":389,"x_min":0,"x_max":0,"o":"m 285 674 l 104 674 l 104 0 l 285 0 z m -61 892 b 50 783 -61 831 -11 783 b 161 892 111 783 161 831 b 50 1000 161 953 111 1000 b -61 892 -11 1000 -61 953 z m 231 892 b 342 783 231 831 281 783 b 453 892 403 783 453 831 b 342 1000 453 953 403 1000 b 231 892 281 1000 231 953 z "},"ñ":{"ha":861,"x_min":0,"x_max":0,"o":"m 285 0 l 285 438 b 449 521 310 472 372 521 b 550 483 490 521 526 507 b 590 357 575 458 590 424 l 590 0 l 771 0 l 771 343 b 701 579 771 458 746 526 b 468 688 646 646 561 688 b 278 619 393 688 329 661 l 278 674 l 104 674 l 104 0 z m 583 1000 b 528 931 579 961 561 931 b 321 1000 468 931 404 1000 b 167 814 221 1000 167 914 l 278 792 b 333 861 282 831 300 861 b 540 792 393 861 457 792 b 694 978 640 792 694 878 z "},"ó":{"ha":814,"x_min":0,"x_max":0,"o":"m 49 336 b 407 -14 49 142 203 -14 b 765 336 611 -14 765 142 b 407 688 765 531 611 688 b 49 336 203 688 49 531 z m 229 336 b 407 521 229 438 301 521 b 585 336 513 521 585 438 b 407 153 585 235 513 153 b 229 336 301 153 229 235 z m 442 1000 l 344 778 l 469 778 l 636 1000 z "},"ò":{"ha":814,"x_min":0,"x_max":0,"o":"m 49 336 b 407 -14 49 142 203 -14 b 765 336 611 -14 765 142 b 407 688 765 531 611 688 b 49 336 203 688 49 531 z m 229 336 b 407 521 229 438 301 521 b 585 336 513 521 585 438 b 407 153 585 235 513 153 b 229 336 301 153 229 235 z m 178 1000 l 344 778 l 469 778 l 372 1000 z "},"ô":{"ha":814,"x_min":0,"x_max":0,"o":"m 49 336 b 407 -14 49 142 203 -14 b 765 336 611 -14 765 142 b 407 688 765 531 611 688 b 49 336 203 688 49 531 z m 229 336 b 407 521 229 438 301 521 b 585 336 513 521 585 438 b 407 153 585 235 513 153 b 229 336 301 153 229 235 z m 310 1000 l 171 778 l 296 778 l 407 903 l 518 778 l 643 778 l 504 1000 z "},"ö":{"ha":814,"x_min":0,"x_max":0,"o":"m 49 336 b 407 -14 49 142 203 -14 b 765 336 611 -14 765 142 b 407 688 765 531 611 688 b 49 336 203 688 49 531 z m 229 336 b 407 521 229 438 301 521 b 585 336 513 521 585 438 b 407 153 585 235 513 153 b 229 336 301 153 229 235 z m 150 892 b 261 783 150 831 200 783 b 372 892 322 783 372 831 b 261 1000 372 953 322 1000 b 150 892 200 1000 150 953 z m 442 892 b 553 783 442 831 492 783 b 664 892 614 783 664 831 b 553 1000 664 953 614 1000 b 442 892 492 1000 442 953 z "},"õ":{"ha":814,"x_min":0,"x_max":0,"o":"m 49 336 b 407 -14 49 142 203 -14 b 765 336 611 -14 765 142 b 407 688 765 531 611 688 b 49 336 203 688 49 531 z m 229 336 b 407 521 229 438 301 521 b 585 336 513 521 585 438 b 407 153 585 235 513 153 b 229 336 301 153 229 235 z m 560 1000 b 504 931 556 961 538 931 b 297 1000 444 931 381 1000 b 143 814 197 1000 143 914 l 254 792 b 310 861 258 831 276 861 b 517 792 369 861 433 792 b 671 978 617 792 671 878 z "},"ú":{"ha":847,"x_min":0,"x_max":0,"o":"m 458 1000 l 361 778 l 486 778 l 653 1000 z m 563 674 l 563 236 b 406 153 538 204 482 153 b 304 194 371 153 332 164 b 271 310 283 218 271 249 l 271 674 l 90 674 l 90 317 b 158 94 90 217 115 147 b 388 -14 211 29 294 -14 b 569 54 453 -14 517 7 l 569 0 l 743 0 l 743 674 z "},"ù":{"ha":847,"x_min":0,"x_max":0,"o":"m 194 1000 l 361 778 l 486 778 l 389 1000 z m 563 674 l 563 236 b 406 153 538 204 482 153 b 304 194 371 153 332 164 b 271 310 283 218 271 249 l 271 674 l 90 674 l 90 317 b 158 94 90 217 115 147 b 388 -14 211 29 294 -14 b 569 54 453 -14 517 7 l 569 0 l 743 0 l 743 674 z "},"û":{"ha":847,"x_min":0,"x_max":0,"o":"m 319 1000 l 181 778 l 306 778 l 417 903 l 528 778 l 653 778 l 514 1000 z m 563 674 l 563 236 b 406 153 538 204 482 153 b 304 194 371 153 332 164 b 271 310 283 218 271 249 l 271 674 l 90 674 l 90 317 b 158 94 90 217 115 147 b 388 -14 211 29 294 -14 b 569 54 453 -14 517 7 l 569 0 l 743 0 l 743 674 z "},"ü":{"ha":847,"x_min":0,"x_max":0,"o":"m 160 892 b 271 783 160 831 210 783 b 382 892 332 783 382 831 b 271 1000 382 953 332 1000 b 160 892 210 1000 160 953 z m 451 892 b 563 783 451 831 501 783 b 674 892 624 783 674 831 b 563 1000 674 953 624 1000 b 451 892 501 1000 451 953 z m 563 674 l 563 236 b 406 153 538 204 482 153 b 304 194 371 153 332 164 b 271 310 283 218 271 249 l 271 674 l 90 674 l 90 317 b 158 94 90 217 115 147 b 388 -14 211 29 294 -14 b 569 54 453 -14 517 7 l 569 0 l 743 0 l 743 674 z "},"†":{"ha":764,"x_min":0,"x_max":0,"o":"m 465 507 l 701 507 l 701 660 l 465 660 l 465 972 l 299 972 l 299 660 l 63 660 l 63 507 l 299 507 l 299 -278 l 465 -278 z "},"‡":{"ha":764,"x_min":0,"x_max":0,"o":"m 465 286 l 465 507 l 701 507 l 701 660 l 465 660 l 465 972 l 299 972 l 299 660 l 63 660 l 63 507 l 299 507 l 299 286 l 63 286 l 63 133 l 299 133 l 299 -278 l 465 -278 l 465 133 l 701 133 l 701 286 z "},"À":{"ha":965,"x_min":0,"x_max":0,"o":"m 253 1278 l 419 1056 l 544 1056 l 447 1278 z m 196 0 l 288 215 l 678 215 l 769 0 l 965 0 l 549 972 l 417 972 l 0 0 z m 482 669 l 606 382 l 358 382 z "},"Ã":{"ha":965,"x_min":0,"x_max":0,"o":"m 196 0 l 288 215 l 678 215 l 769 0 l 965 0 l 549 972 l 417 972 l 0 0 z m 482 669 l 606 382 l 358 382 z m 635 1278 b 579 1208 631 1239 613 1208 b 372 1278 519 1208 456 1278 b 218 1092 272 1278 218 1192 l 329 1069 b 385 1139 333 1108 351 1139 b 592 1069 444 1139 508 1069 b 746 1256 692 1069 746 1156 z "},"Õ":{"ha":1097,"x_min":0,"x_max":0,"o":"m 229 486 b 549 819 229 669 365 819 b 868 486 732 819 868 669 b 549 153 868 303 732 153 b 229 486 365 153 229 303 z m 42 486 b 549 -14 42 210 249 -14 b 1056 486 849 -14 1056 210 b 549 986 1056 763 849 986 b 42 486 249 986 42 763 z m 701 1278 b 646 1208 697 1239 679 1208 b 439 1278 586 1208 522 1278 b 285 1092 339 1278 285 1192 l 396 1069 b 451 1139 400 1108 418 1139 b 658 1069 511 1139 575 1069 b 813 1256 758 1069 813 1156 z "},"Ÿ":{"ha":868,"x_min":0,"x_max":0,"o":"m 861 972 l 647 972 l 435 631 l 221 972 l 7 972 l 340 440 l 340 0 l 528 0 l 528 440 z m 178 1169 b 289 1061 178 1108 228 1061 b 400 1169 350 1061 400 1108 b 289 1278 400 1231 350 1278 b 178 1169 228 1278 178 1231 z m 469 1169 b 581 1061 469 1108 519 1061 b 692 1169 642 1061 692 1108 b 581 1278 692 1231 642 1278 b 469 1169 519 1278 469 1231 z "},"ÿ":{"ha":796,"x_min":0,"x_max":0,"o":"m 146 892 b 257 783 146 831 196 783 b 368 892 318 783 368 831 b 257 1000 368 953 318 1000 b 146 892 196 1000 146 953 z m 438 892 b 549 783 438 831 488 783 b 660 892 610 783 660 831 b 549 1000 660 953 610 1000 b 438 892 488 1000 438 953 z m 318 -333 l 782 674 l 592 674 l 410 269 l 213 674 l 14 674 l 315 68 l 129 -333 z "},"Š":{"ha":743,"x_min":0,"x_max":0,"o":"m 465 1056 l 604 1278 l 479 1278 l 368 1153 l 257 1278 l 132 1278 l 271 1056 z m 14 132 b 365 -14 114 40 235 -14 b 694 278 540 -14 694 106 b 246 714 694 606 246 557 b 396 819 246 789 325 819 b 564 756 460 819 525 792 l 661 894 b 379 986 569 963 478 986 b 58 713 218 986 58 886 b 196 492 58 603 119 536 b 507 275 326 415 507 400 b 365 153 507 204 449 153 b 136 260 276 153 192 199 z "},"š":{"ha":639,"x_min":0,"x_max":0,"o":"m 417 778 l 556 1000 l 431 1000 l 319 875 l 208 1000 l 83 1000 l 222 778 z m 38 76 b 308 -14 117 18 215 -14 b 576 194 450 -14 576 65 b 250 481 576 428 250 393 b 342 535 250 515 292 535 b 471 489 390 535 436 514 l 556 619 b 328 688 511 654 415 688 b 69 478 194 688 69 607 b 396 196 69 261 396 297 b 310 139 396 163 358 139 b 125 206 242 139 171 164 z "},"Ý":{"ha":868,"x_min":0,"x_max":0,"o":"m 861 972 l 647 972 l 435 631 l 221 972 l 7 972 l 340 440 l 340 0 l 528 0 l 528 440 z m 468 1278 l 371 1056 l 496 1056 l 663 1278 z "},"ý":{"ha":796,"x_min":0,"x_max":0,"o":"m 444 1000 l 347 778 l 472 778 l 639 1000 z m 318 -333 l 782 674 l 592 674 l 410 269 l 213 674 l 14 674 l 315 68 l 129 -333 z "},"Â":{"ha":965,"x_min":0,"x_max":0,"o":"m 385 1278 l 246 1056 l 371 1056 l 482 1181 l 593 1056 l 718 1056 l 579 1278 z m 196 0 l 288 215 l 678 215 l 769 0 l 965 0 l 549 972 l 417 972 l 0 0 z m 482 669 l 606 382 l 358 382 z "},"Ê":{"ha":764,"x_min":0,"x_max":0,"o":"m 694 806 l 694 972 l 111 972 l 111 0 l 708 0 l 708 167 l 299 167 l 299 438 l 597 438 l 597 604 l 299 604 l 299 806 z m 313 1278 l 174 1056 l 299 1056 l 410 1181 l 521 1056 l 646 1056 l 507 1278 z "},"Á":{"ha":965,"x_min":0,"x_max":0,"o":"m 517 1278 l 419 1056 l 544 1056 l 711 1278 z m 196 0 l 288 215 l 678 215 l 769 0 l 965 0 l 549 972 l 417 972 l 0 0 z m 482 669 l 606 382 l 358 382 z "},"Ë":{"ha":764,"x_min":0,"x_max":0,"o":"m 694 806 l 694 972 l 111 972 l 111 0 l 708 0 l 708 167 l 299 167 l 299 438 l 597 438 l 597 604 l 299 604 l 299 806 z m 147 1169 b 258 1061 147 1108 197 1061 b 369 1169 319 1061 369 1108 b 258 1278 369 1231 319 1278 b 147 1169 197 1278 147 1231 z m 439 1169 b 550 1061 439 1108 489 1061 b 661 1169 611 1061 661 1108 b 550 1278 661 1231 611 1278 b 439 1169 489 1278 439 1231 z "},"È":{"ha":764,"x_min":0,"x_max":0,"o":"m 694 806 l 694 972 l 111 972 l 111 0 l 708 0 l 708 167 l 299 167 l 299 438 l 597 438 l 597 604 l 299 604 l 299 806 z m 190 1278 l 357 1056 l 482 1056 l 385 1278 z "},"Í":{"ha":410,"x_min":0,"x_max":0,"o":"m 111 0 l 299 0 l 299 972 l 111 972 z m 236 1278 l 139 1056 l 264 1056 l 431 1278 z "},"Î":{"ha":410,"x_min":0,"x_max":0,"o":"m 111 0 l 299 0 l 299 972 l 111 972 z m 107 1278 l -32 1056 l 93 1056 l 204 1181 l 315 1056 l 440 1056 l 301 1278 z "},"Ï":{"ha":410,"x_min":0,"x_max":0,"o":"m 111 0 l 299 0 l 299 972 l 111 972 z m -53 1169 b 58 1061 -53 1108 -3 1061 b 169 1169 119 1061 169 1108 b 58 1278 169 1231 119 1278 b -53 1169 -3 1278 -53 1231 z m 239 1169 b 350 1061 239 1108 289 1061 b 461 1169 411 1061 461 1108 b 350 1278 461 1231 411 1278 b 239 1169 289 1278 239 1231 z "},"Ì":{"ha":410,"x_min":0,"x_max":0,"o":"m 111 0 l 299 0 l 299 972 l 111 972 z m -21 1278 l 146 1056 l 271 1056 l 174 1278 z "},"Ó":{"ha":1097,"x_min":0,"x_max":0,"o":"m 229 486 b 549 819 229 669 365 819 b 868 486 732 819 868 669 b 549 153 868 303 732 153 b 229 486 365 153 229 303 z m 42 486 b 549 -14 42 210 249 -14 b 1056 486 849 -14 1056 210 b 549 986 1056 763 849 986 b 42 486 249 986 42 763 z m 583 1278 l 486 1056 l 611 1056 l 778 1278 z "},"Ô":{"ha":1097,"x_min":0,"x_max":0,"o":"m 229 486 b 549 819 229 669 365 819 b 868 486 732 819 868 669 b 549 153 868 303 732 153 b 229 486 365 153 229 303 z m 42 486 b 549 -14 42 210 249 -14 b 1056 486 849 -14 1056 210 b 549 986 1056 763 849 986 b 42 486 249 986 42 763 z m 451 1278 l 313 1056 l 438 1056 l 549 1181 l 660 1056 l 785 1056 l 646 1278 z "},"Ò":{"ha":1097,"x_min":0,"x_max":0,"o":"m 229 486 b 549 819 229 669 365 819 b 868 486 732 819 868 669 b 549 153 868 303 732 153 b 229 486 365 153 229 303 z m 42 486 b 549 -14 42 210 249 -14 b 1056 486 849 -14 1056 210 b 549 986 1056 763 849 986 b 42 486 249 986 42 763 z m 319 1278 l 486 1056 l 611 1056 l 514 1278 z "},"Ú":{"ha":1042,"x_min":0,"x_max":0,"o":"m 556 1278 l 458 1056 l 583 1056 l 750 1278 z m 521 -14 b 813 86 631 -14 738 19 b 938 410 893 158 938 261 l 938 972 l 750 972 l 750 396 b 686 215 750 307 726 253 b 521 153 644 175 586 153 b 356 215 456 153 397 175 b 292 396 315 253 292 307 l 292 972 l 104 972 l 104 410 b 229 86 104 261 149 158 b 521 -14 304 19 411 -14 z "},"Û":{"ha":1042,"x_min":0,"x_max":0,"o":"m 424 1278 l 285 1056 l 410 1056 l 521 1181 l 632 1056 l 757 1056 l 618 1278 z m 521 -14 b 813 86 631 -14 738 19 b 938 410 893 158 938 261 l 938 972 l 750 972 l 750 396 b 686 215 750 307 726 253 b 521 153 644 175 586 153 b 356 215 456 153 397 175 b 292 396 315 253 292 307 l 292 972 l 104 972 l 104 410 b 229 86 104 261 149 158 b 521 -14 304 19 411 -14 z "},"Ù":{"ha":1042,"x_min":0,"x_max":0,"o":"m 293 1278 l 460 1056 l 585 1056 l 488 1278 z m 521 -14 b 813 86 631 -14 738 19 b 938 410 893 158 938 261 l 938 972 l 750 972 l 750 396 b 686 215 750 307 726 253 b 521 153 644 175 586 153 b 356 215 456 153 397 175 b 292 396 315 253 292 307 l 292 972 l 104 972 l 104 410 b 229 86 104 261 149 158 b 521 -14 304 19 411 -14 z "},".":{"ha":521,"x_min":0,"x_max":0,"o":"m 153 107 b 274 -14 153 39 206 -14 b 396 107 342 -14 396 39 b 274 229 396 175 342 229 b 153 107 206 229 153 175 z "}," ":{"ha":375,"x_min":0,"x_max":0,"o":""},"…":{"ha":1382,"x_min":0,"x_max":0,"o":"m 153 104 b 274 -14 153 36 206 -14 b 396 104 342 -14 396 36 b 274 224 396 172 342 224 b 153 104 206 224 153 172 z m 583 104 b 704 -14 583 36 636 -14 b 826 104 772 -14 826 36 b 704 224 826 172 772 224 b 583 104 636 224 583 172 z m 1014 104 b 1135 -14 1014 36 1067 -14 b 1257 104 1203 -14 1257 36 b 1135 224 1257 172 1203 224 b 1014 104 1067 224 1014 172 z "},"·":{"ha":521,"x_min":0,"x_max":0,"o":"m 139 336 b 260 215 139 268 192 215 b 382 336 328 215 382 268 b 260 458 382 404 328 458 b 139 336 192 458 139 404 z "},"-":{"ha":653,"x_min":0,"x_max":0,"o":"m 97 438 l 97 285 l 556 285 l 556 438 z "},"–":{"ha":722,"x_min":0,"x_max":0,"o":"m 21 438 l 21 285 l 701 285 l 701 438 z "},"—":{"ha":1139,"x_min":0,"x_max":0,"o":"m 21 438 l 21 285 l 1118 285 l 1118 438 z "},"¨":{"ha":708,"x_min":0,"x_max":0,"o":"m 97 892 b 208 783 97 831 147 783 b 319 892 269 783 319 831 b 208 1000 319 953 269 1000 b 97 892 147 1000 97 953 z m 389 892 b 500 783 389 831 439 783 b 611 892 561 783 611 831 b 500 1000 611 953 561 1000 b 389 892 439 1000 389 953 z "},"´":{"ha":486,"x_min":0,"x_max":0,"o":"m 194 1000 l 97 778 l 222 778 l 389 1000 z "},"`":{"ha":486,"x_min":0,"x_max":0,"o":"m 97 1000 l 264 778 l 389 778 l 292 1000 z "},"˙":{"ha":431,"x_min":0,"x_max":0,"o":"m 97 913 b 215 797 97 847 150 797 b 333 913 281 797 333 847 b 215 1028 333 978 281 1028 b 97 913 150 1028 97 978 z "},":":{"ha":521,"x_min":0,"x_max":0,"o":"m 153 568 b 274 450 153 500 206 450 b 396 568 342 450 396 500 b 274 688 396 636 342 688 b 153 568 206 688 153 636 z m 153 104 b 274 -14 153 36 206 -14 b 396 104 342 -14 396 36 b 274 224 396 172 342 224 b 153 104 206 224 153 172 z "},";":{"ha":521,"x_min":0,"x_max":0,"o":"m 174 215 l 69 -194 l 201 -194 l 368 215 z m 146 568 b 267 450 146 500 199 450 b 389 568 335 450 389 500 b 267 688 389 636 335 688 b 146 568 199 688 146 636 z "},",":{"ha":521,"x_min":0,"x_max":0,"o":"m 174 215 l 69 -194 l 201 -194 l 368 215 z "},"¦":{"ha":389,"x_min":0,"x_max":0,"o":"m 278 264 l 111 264 l 111 -278 l 278 -278 z m 278 972 l 111 972 l 111 431 l 278 431 z "},"•":{"ha":833,"x_min":0,"x_max":0,"o":"m 111 336 b 417 31 111 168 249 31 b 722 336 585 31 722 168 b 417 642 722 504 585 642 b 111 336 249 642 111 504 z "},"_":{"ha":722,"x_min":0,"x_max":0,"o":"m 21 0 l 21 -153 l 701 -153 l 701 0 z "},"Ž":{"ha":854,"x_min":0,"x_max":0,"o":"m 56 0 l 806 0 l 806 167 l 304 167 l 778 861 l 778 972 l 97 972 l 97 806 l 528 806 l 56 111 z m 528 1056 l 667 1278 l 542 1278 l 431 1153 l 319 1278 l 194 1278 l 333 1056 z "},"ž":{"ha":736,"x_min":0,"x_max":0,"o":"m 465 778 l 604 1000 l 479 1000 l 368 875 l 257 1000 l 132 1000 l 271 778 z m 639 674 l 97 674 l 97 521 l 392 521 l 69 111 l 69 0 l 667 0 l 667 153 l 313 153 l 639 563 z "},"«":{"ha":915,"x_min":0,"x_max":0,"o":"m 272 607 l 97 392 l 97 294 l 272 79 l 471 79 l 254 343 l 471 607 z m 661 607 l 486 392 l 486 294 l 661 79 l 860 79 l 643 343 l 860 607 z "},"‹":{"ha":526,"x_min":0,"x_max":0,"o":"m 272 607 l 97 392 l 97 294 l 272 79 l 471 79 l 254 343 l 471 607 z "},"›":{"ha":526,"x_min":0,"x_max":0,"o":"m 56 607 l 272 343 l 56 79 l 254 79 l 429 294 l 429 392 l 254 607 z "},"'":{"ha":375,"x_min":0,"x_max":0,"o":"m 278 972 l 97 972 l 125 618 l 250 618 z "},"‚":{"ha":451,"x_min":0,"x_max":0,"o":"m 188 215 l 83 -194 l 215 -194 l 382 215 z "},"’":{"ha":451,"x_min":0,"x_max":0,"o":"m 188 972 l 83 563 l 215 563 l 382 972 z "},"‘":{"ha":451,"x_min":0,"x_max":0,"o":"m 264 563 l 368 972 l 236 972 l 69 563 z "},"“":{"ha":785,"x_min":0,"x_max":0,"o":"m 597 563 l 701 972 l 569 972 l 403 563 z m 264 563 l 368 972 l 236 972 l 69 563 z "},"”":{"ha":785,"x_min":0,"x_max":0,"o":"m 188 972 l 83 563 l 215 563 l 382 972 z m 521 972 l 417 563 l 549 563 l 715 972 z "},"„":{"ha":785,"x_min":0,"x_max":0,"o":"m 188 215 l 83 -194 l 215 -194 l 382 215 z m 521 215 l 417 -194 l 549 -194 l 715 215 z "},"ˆ":{"ha":667,"x_min":0,"x_max":0,"o":"m 236 1000 l 97 778 l 222 778 l 333 903 l 444 778 l 569 778 l 431 1000 z "},"ˇ":{"ha":667,"x_min":0,"x_max":0,"o":"m 431 778 l 569 1000 l 444 1000 l 333 875 l 222 1000 l 97 1000 l 236 778 z "},"\"":{"ha":667,"x_min":0,"x_max":0,"o":"m 278 972 l 97 972 l 125 618 l 250 618 z m 569 972 l 389 972 l 417 618 l 542 618 z "},"A":{"ha":965,"x_min":0,"x_max":0,"o":"m 196 0 l 288 215 l 678 215 l 769 0 l 965 0 l 549 972 l 417 972 l 0 0 z m 482 669 l 606 382 l 358 382 z "},"˜":{"ha":722,"x_min":0,"x_max":0,"o":"m 514 1000 b 458 931 510 961 492 931 b 251 1000 399 931 335 1000 b 97 814 151 1000 97 914 l 208 792 b 264 861 213 831 231 861 b 471 792 324 861 388 792 b 625 978 571 792 625 878 z "},"˚":{"ha":500,"x_min":0,"x_max":0,"o":"m 97 903 b 250 750 97 818 165 750 b 403 903 335 750 403 818 b 250 1056 403 988 335 1056 b 97 903 165 1056 97 988 z m 208 903 b 250 944 208 926 226 944 b 292 903 274 944 292 926 b 250 861 292 879 274 861 b 208 903 226 861 208 879 z "},"œ":{"ha":1279,"x_min":0,"x_max":0,"o":"m 1111 210 b 942 132 1079 175 1018 132 b 760 292 846 132 769 197 l 1226 292 b 1231 343 1229 307 1231 325 b 913 688 1231 531 1099 688 b 669 568 806 688 722 640 b 407 688 608 640 517 688 b 49 336 203 688 49 531 b 407 -14 49 142 203 -14 b 671 106 517 -14 610 35 b 938 -14 731 29 824 -14 b 1214 107 1042 -14 1149 29 z m 229 336 b 407 521 229 438 301 521 b 585 336 513 521 585 438 b 407 153 585 235 513 153 b 229 336 301 153 229 235 z m 768 424 b 913 542 776 485 838 542 b 1046 424 986 542 1040 483 z "},"(":{"ha":632,"x_min":0,"x_max":0,"o":"m 361 347 b 526 892 361 546 421 740 l 392 986 b 194 347 265 806 194 583 b 392 -292 194 111 265 -111 l 526 -197 b 361 347 421 -46 361 149 z "},"þ":{"ha":854,"x_min":0,"x_max":0,"o":"m 104 986 l 104 -333 l 285 -333 l 285 47 b 465 -14 339 6 397 -14 b 721 100 565 -14 661 31 b 806 336 774 161 806 244 b 475 688 806 535 658 688 b 285 625 401 688 338 667 l 285 986 z m 285 438 b 451 521 322 488 382 521 b 625 336 557 521 625 433 b 447 153 625 231 549 153 b 285 236 379 153 319 186 z "},")":{"ha":632,"x_min":0,"x_max":0,"o":"m 271 347 b 106 -197 271 149 211 -46 l 240 -292 b 438 347 367 -111 438 111 b 240 986 438 583 367 806 l 106 892 b 271 347 211 740 271 546 z "},"Þ":{"ha":833,"x_min":0,"x_max":0,"o":"m 111 0 l 299 0 l 299 201 l 476 201 b 729 290 601 201 676 235 b 806 489 778 340 806 413 b 729 688 806 565 778 638 b 476 778 675 744 601 778 l 299 778 l 299 972 l 111 972 z m 299 368 l 299 611 l 468 611 b 586 572 532 611 564 596 b 618 489 607 550 618 521 b 586 407 618 457 607 429 b 468 368 564 383 532 368 z "},"ç":{"ha":750,"x_min":0,"x_max":0,"o":"m 229 336 b 411 521 229 439 307 521 b 567 440 476 521 531 488 l 694 553 b 411 688 632 633 528 688 b 49 336 206 688 49 532 b 339 -7 49 164 168 22 l 258 -208 l 439 -208 l 476 -8 b 715 138 572 4 650 51 l 576 242 b 415 153 547 197 489 153 b 229 336 306 153 229 231 z "},"Ø":{"ha":1097,"x_min":0,"x_max":0,"o":"m 42 486 b 158 158 42 361 83 246 l 13 -14 l 239 -14 l 292 50 b 549 -14 365 10 451 -14 b 1056 486 849 -14 1056 210 b 939 813 1056 611 1013 725 l 1083 986 l 856 986 l 804 922 b 549 986 731 963 644 986 b 42 486 249 986 42 763 z m 868 486 b 549 153 868 303 732 153 b 407 186 497 153 449 165 l 817 669 b 868 486 849 617 868 553 z m 229 486 b 549 819 229 669 365 819 b 689 786 599 819 647 807 l 279 303 b 229 486 247 356 229 418 z "},"$":{"ha":743,"x_min":0,"x_max":0,"o":"m 14 132 b 275 -4 90 61 179 14 l 275 -160 l 442 -160 l 442 -6 b 694 278 582 22 694 131 b 246 714 694 606 246 557 b 396 819 246 789 325 819 b 564 756 460 819 525 792 l 661 894 b 442 982 589 947 517 974 l 442 1132 l 275 1132 l 275 972 b 58 713 156 939 58 847 b 196 492 58 603 119 536 b 507 275 326 415 507 400 b 365 153 507 204 449 153 b 136 260 276 153 192 199 z "},"Ð":{"ha":1014,"x_min":0,"x_max":0,"o":"m 0 438 l 139 438 l 139 0 l 444 0 b 779 92 599 0 700 33 b 972 486 899 181 972 325 b 779 881 972 647 899 792 b 444 972 700 939 599 972 l 139 972 l 139 604 l 0 604 z m 785 486 b 714 275 785 406 758 331 b 465 167 660 207 581 167 l 326 167 l 326 438 l 604 438 l 604 604 l 326 604 l 326 806 l 465 806 b 714 697 581 806 660 765 b 785 486 758 642 785 567 z "},"ﬁ":{"ha":1000,"x_min":0,"x_max":0,"o":"m 590 988 b 483 1000 553 997 519 1000 b 274 921 392 1000 321 967 b 201 701 226 875 201 810 l 201 674 l 28 674 l 28 521 l 201 521 l 201 0 l 382 0 l 382 521 l 715 521 l 715 0 l 896 0 l 896 674 l 382 674 l 382 694 b 407 801 382 757 392 782 b 508 840 429 828 464 840 b 563 833 525 840 547 838 z m 688 913 b 806 797 688 847 740 797 b 924 913 871 797 924 847 b 806 1028 924 978 871 1028 b 688 913 740 1028 688 978 z "},"ﬂ":{"ha":1000,"x_min":0,"x_max":0,"o":"m 590 988 b 483 1000 553 997 519 1000 b 274 921 392 1000 321 967 b 201 701 226 875 201 810 l 201 674 l 28 674 l 28 521 l 201 521 l 201 0 l 382 0 l 382 521 l 715 521 l 715 0 l 896 0 l 896 986 l 715 986 l 715 674 l 382 674 l 382 694 b 407 801 382 757 392 782 b 508 840 429 828 464 840 b 563 833 525 840 547 838 z "},"ø":{"ha":814,"x_min":0,"x_max":0,"o":"m 607 688 l 575 649 b 407 688 525 674 468 688 b 49 336 203 688 49 531 b 121 122 49 256 75 181 l 8 -14 l 207 -14 l 239 25 b 407 -14 288 0 344 -14 b 765 336 611 -14 765 142 b 692 551 765 417 738 492 l 806 688 z m 585 336 b 407 153 585 235 513 153 b 363 157 392 153 376 154 l 572 407 b 585 336 581 385 585 361 z m 229 336 b 407 521 229 438 301 521 b 450 515 422 521 436 519 l 242 267 b 229 336 233 288 229 311 z "},"¢":{"ha":750,"x_min":0,"x_max":0,"o":"m 229 336 b 411 521 229 439 307 521 b 567 440 476 521 531 488 l 694 553 b 482 681 644 617 569 664 l 482 833 l 315 833 l 315 675 b 49 336 158 635 49 500 b 315 -1 49 172 157 36 l 315 -160 l 482 -160 l 482 -8 b 715 138 575 7 651 53 l 576 242 b 415 153 547 197 489 153 b 229 336 306 153 229 231 z "},"¶":{"ha":1007,"x_min":0,"x_max":0,"o":"m 333 528 b 201 674 258 535 201 597 b 333 819 201 750 258 813 z m 379 972 b 186 932 282 972 231 958 b 35 674 97 881 35 783 b 333 375 35 508 168 375 l 333 -278 l 500 -278 l 500 819 l 639 819 l 639 -278 l 806 -278 l 806 819 l 944 819 l 944 972 z "},"§":{"ha":796,"x_min":0,"x_max":0,"o":"m 747 299 b 292 714 747 613 292 557 b 442 819 292 789 371 819 b 610 756 506 819 571 792 l 707 894 b 425 986 615 963 524 986 b 104 713 264 986 104 886 b 146 575 104 656 119 611 b 49 368 86 524 49 453 b 504 -47 49 54 504 110 b 354 -153 504 -122 425 -153 b 186 -89 290 -153 225 -125 l 89 -228 b 371 -319 181 -296 272 -319 b 692 -46 532 -319 692 -219 b 650 90 692 10 675 54 b 747 299 708 142 747 214 z m 560 296 b 508 197 560 254 540 219 b 236 371 383 253 236 263 b 288 468 236 411 254 446 b 560 296 411 414 560 403 z "},"£":{"ha":736,"x_min":0,"x_max":0,"o":"m 339 563 b 300 706 318 611 300 657 b 419 819 300 771 353 819 b 532 736 475 819 515 781 l 689 797 b 414 986 647 908 554 986 b 119 706 254 986 119 861 b 147 563 119 649 131 603 l 56 563 l 56 410 l 210 410 b 217 343 215 385 217 364 b 35 111 217 235 149 149 l 35 0 l 722 0 l 722 167 l 342 167 b 397 344 368 206 397 265 b 392 410 397 369 394 390 l 526 410 l 526 563 z "},"æ":{"ha":1279,"x_min":0,"x_max":0,"o":"m 1111 210 b 935 132 1079 175 1011 132 b 746 292 839 132 756 197 l 1226 292 b 1231 343 1229 307 1231 325 b 908 688 1231 533 1086 688 b 736 619 838 688 775 657 l 736 674 l 576 674 l 576 619 b 379 688 524 663 456 688 b 49 336 196 688 49 535 b 135 100 49 244 82 161 b 389 -14 194 31 289 -14 b 576 54 457 -14 521 7 l 576 0 l 736 0 l 736 54 b 938 -14 786 14 868 -14 b 1214 107 1042 -14 1149 29 z m 569 236 b 407 153 535 186 475 153 b 229 336 306 153 229 231 b 403 521 229 433 297 521 b 569 438 472 521 532 488 z m 754 424 b 903 542 769 496 833 542 b 1046 424 972 542 1036 490 z "},"¥":{"ha":868,"x_min":0,"x_max":0,"o":"m 72 299 l 340 299 l 340 0 l 528 0 l 528 299 l 796 299 l 796 451 l 535 451 l 578 521 l 796 521 l 796 674 l 674 674 l 861 972 l 647 972 l 435 631 l 221 972 l 7 972 l 193 674 l 72 674 l 72 521 l 289 521 l 333 451 l 72 451 z "},"°":{"ha":597,"x_min":0,"x_max":0,"o":"m 63 750 b 299 514 63 619 168 514 b 535 750 429 514 535 619 b 299 986 535 881 429 986 b 63 750 168 986 63 881 z m 201 750 b 299 847 201 804 244 847 b 396 750 353 847 396 804 b 299 653 396 696 353 653 b 201 750 244 653 201 696 z "},"ß":{"ha":840,"x_min":0,"x_max":0,"o":"m 390 614 l 390 447 l 436 447 b 557 414 499 447 532 433 b 611 297 590 388 611 344 b 467 153 611 218 553 153 b 401 167 443 153 422 158 l 324 24 b 478 -14 369 -1 422 -14 b 792 301 654 -14 792 126 b 639 567 792 413 731 515 b 699 729 676 610 699 668 b 400 1014 699 886 569 1014 b 163 901 300 1014 215 969 b 108 767 135 865 117 824 b 104 701 106 747 104 725 l 104 0 l 285 0 l 285 703 b 313 807 285 758 294 786 b 401 847 333 832 365 847 b 518 731 468 847 518 794 b 481 644 518 697 503 665 b 390 614 460 625 429 614 z "},"¸":{"ha":431,"x_min":0,"x_max":0,"o":"m 111 -208 l 292 -208 l 333 14 l 201 14 z "},"&":{"ha":917,"x_min":0,"x_max":0,"o":"m 647 586 b 671 433 660 543 671 493 b 657 329 671 396 665 360 l 471 543 b 599 758 539 596 599 663 b 365 986 599 889 500 986 b 132 775 242 986 132 894 b 208 589 132 710 161 651 b 35 304 115 526 35 435 b 399 -14 35 110 214 -14 b 668 58 503 -14 597 11 l 719 0 l 944 0 l 785 183 b 844 432 825 251 844 338 b 815 626 844 508 825 593 z m 215 304 b 321 458 215 382 265 428 l 553 190 b 407 153 513 165 461 153 b 215 304 288 153 215 224 z m 418 760 b 360 668 418 726 393 697 b 313 760 335 696 313 728 b 365 819 313 792 335 819 b 418 760 397 819 418 792 z "},"!":{"ha":521,"x_min":0,"x_max":0,"o":"m 350 674 l 350 972 l 169 972 l 169 674 l 197 319 l 322 319 z m 139 107 b 260 -14 139 39 192 -14 b 382 107 328 -14 382 39 b 260 229 382 175 328 229 b 139 107 192 229 139 175 z "},"¡":{"ha":521,"x_min":0,"x_max":0,"o":"m 322 319 l 197 319 l 169 -35 l 169 -333 l 350 -333 l 350 -35 z m 139 569 b 260 450 139 501 192 450 b 382 569 328 450 382 501 b 260 688 382 638 328 688 b 139 569 192 688 139 638 z "},"#":{"ha":1018,"x_min":0,"x_max":0,"o":"m 442 563 l 617 563 l 575 410 l 400 410 z m 131 715 l 131 563 l 283 563 l 242 410 l 49 410 l 49 257 l 201 257 l 133 0 l 292 0 l 360 257 l 535 257 l 467 0 l 625 0 l 693 257 l 892 257 l 886 410 l 733 410 l 776 563 l 969 563 l 969 715 l 817 715 l 885 972 l 726 972 l 658 715 l 483 715 l 551 972 l 393 972 l 325 715 z "},"¯":{"ha":639,"x_min":0,"x_max":0,"o":"m 97 958 l 97 819 l 542 819 l 542 958 z "},"~":{"ha":792,"x_min":0,"x_max":0,"o":"m 176 261 b 267 371 188 322 219 371 b 531 254 335 371 397 254 b 764 479 665 254 740 364 l 615 517 b 525 407 604 456 572 407 b 261 524 457 407 394 524 b 28 299 126 524 51 414 z "},"^":{"ha":722,"x_min":0,"x_max":0,"o":"m 42 486 l 214 486 l 361 765 l 508 486 l 681 486 l 424 972 l 299 972 z "},"*":{"ha":717,"x_min":0,"x_max":0,"o":"m 240 375 l 358 538 l 476 375 l 599 464 l 481 626 l 672 689 l 625 833 l 435 771 l 435 972 l 282 972 l 282 771 l 92 832 l 44 689 l 236 626 l 118 464 z "},"+":{"ha":764,"x_min":0,"x_max":0,"o":"m 63 465 l 63 313 l 306 313 l 306 69 l 458 69 l 458 313 l 701 313 l 701 465 l 458 465 l 458 708 l 306 708 l 306 465 z "},"−":{"ha":764,"x_min":0,"x_max":0,"o":"m 63 465 l 63 313 l 701 313 l 701 465 z "},"=":{"ha":764,"x_min":0,"x_max":0,"o":"m 63 319 l 63 167 l 701 167 l 701 319 z m 63 611 l 63 458 l 701 458 l 701 611 z "},"≈":{"ha":792,"x_min":0,"x_max":0,"o":"m 176 108 b 267 218 188 169 219 218 b 531 101 335 218 397 101 b 764 326 665 101 740 211 l 615 364 b 525 254 604 303 572 254 b 261 371 457 254 394 371 b 28 146 126 371 51 261 z m 176 414 b 267 524 188 475 219 524 b 531 407 335 524 397 407 b 764 632 665 407 740 517 l 615 669 b 525 560 604 608 572 560 b 261 676 457 560 394 676 b 28 451 126 676 51 567 z "},"Ł":{"ha":757,"x_min":0,"x_max":0,"o":"m 118 0 l 715 0 l 715 167 l 306 167 l 306 478 l 500 590 l 500 774 l 306 661 l 306 972 l 118 972 l 118 553 l -35 464 l -35 281 l 118 369 z "},"ł":{"ha":389,"x_min":0,"x_max":0,"o":"m 285 986 l 104 986 l 104 553 l -49 464 l -49 281 l 104 369 l 104 0 l 285 0 l 285 474 l 438 563 l 438 746 l 285 657 z "},"¬":{"ha":764,"x_min":0,"x_max":0,"o":"m 701 611 l 63 611 l 63 458 l 549 458 l 549 167 l 701 167 z "},"∆":{"ha":819,"x_min":0,"x_max":0,"o":"m 14 97 l 14 0 l 806 0 l 806 97 l 472 972 l 347 972 z m 410 708 l 621 153 l 199 153 z "},"≠":{"ha":764,"x_min":0,"x_max":0,"o":"m 688 764 l 513 764 l 426 611 l 63 611 l 63 458 l 340 458 l 263 319 l 63 319 l 63 167 l 176 167 l 90 14 l 265 14 l 351 167 l 701 167 l 701 319 l 438 319 l 515 458 l 701 458 l 701 611 l 601 611 z "},"×":{"ha":736,"x_min":0,"x_max":0,"o":"m 167 699 l 58 590 l 260 389 l 58 188 l 167 79 l 368 281 l 569 79 l 678 188 l 476 389 l 678 590 l 569 699 l 368 497 z "},"⁄":{"ha":736,"x_min":0,"x_max":0,"o":"m 161 0 l 729 972 l 575 972 l 7 0 z "},"µ":{"ha":861,"x_min":0,"x_max":0,"o":"m 576 674 l 576 236 b 419 153 551 204 496 153 b 318 194 385 153 346 164 b 285 310 297 218 285 249 l 285 674 l 104 674 l 104 -333 l 285 -333 l 285 17 b 401 -14 317 -3 360 -14 b 583 54 467 -14 531 7 l 583 0 l 757 0 l 757 674 z "},"÷":{"ha":764,"x_min":0,"x_max":0,"o":"m 63 465 l 63 313 l 701 313 l 701 465 z m 278 635 b 382 533 278 578 325 533 b 486 635 439 533 486 578 b 382 736 486 692 439 736 b 278 635 325 736 278 692 z m 278 143 b 382 42 278 86 325 42 b 486 143 439 42 486 86 b 382 244 486 200 439 244 b 278 143 325 244 278 200 z "},"∂":{"ha":828,"x_min":0,"x_max":0,"o":"m 396 686 b 56 336 196 679 56 524 b 417 -14 56 140 211 -14 b 772 336 619 -14 772 143 b 649 629 772 443 708 547 l 392 986 l 182 986 z m 594 336 b 417 153 594 236 521 153 b 236 336 311 153 236 233 b 428 521 236 444 314 521 b 531 494 469 521 506 511 l 543 479 b 594 336 567 450 594 399 z "},"ð":{"ha":814,"x_min":0,"x_max":0,"o":"m 131 800 l 200 679 l 338 757 l 389 686 b 49 336 189 679 49 524 b 410 -14 49 140 204 -14 b 765 336 613 -14 765 143 b 642 629 765 443 701 547 l 488 842 l 599 906 l 531 1028 l 406 957 l 385 986 l 175 986 l 256 871 z m 588 336 b 410 153 588 236 514 153 b 229 336 304 153 229 233 b 421 521 229 444 307 521 b 524 494 463 521 499 511 l 536 479 b 588 336 560 450 588 399 z "},"%":{"ha":1340,"x_min":0,"x_max":0,"o":"m 431 729 b 333 625 431 672 393 625 b 236 729 274 625 236 672 b 333 833 236 786 274 833 b 431 729 393 833 431 786 z m 69 729 b 333 472 69 588 183 472 b 597 729 483 472 597 588 b 333 986 597 871 483 986 b 69 729 183 986 69 871 z m 1104 243 b 1007 139 1104 186 1067 139 b 910 243 947 139 910 186 b 1007 347 910 300 947 347 b 1104 243 1067 347 1104 300 z m 743 243 b 1007 -14 743 101 857 -14 b 1271 243 1157 -14 1271 101 b 1007 500 1271 385 1157 500 b 743 243 857 500 743 385 z m 465 0 l 1033 972 l 879 972 l 311 0 z "},"∑":{"ha":813,"x_min":0,"x_max":0,"o":"m 542 453 l 542 550 l 275 819 l 590 819 l 590 681 l 743 681 l 743 972 l 7 972 l 7 875 l 374 500 l -7 97 l -7 0 l 757 0 l 757 292 l 604 292 l 604 153 l 256 153 z "},"∏":{"ha":819,"x_min":0,"x_max":0,"o":"m 21 972 l 21 819 l 160 819 l 160 0 l 326 0 l 326 819 l 493 819 l 493 0 l 660 0 l 660 819 l 799 819 l 799 972 z "},"π":{"ha":801,"x_min":0,"x_max":0,"o":"m 178 0 l 344 0 l 344 500 l 482 500 l 482 224 b 578 -14 482 114 494 49 l 696 97 b 649 213 658 129 649 154 l 649 500 l 788 500 l 788 653 l 235 653 b 106 633 181 653 135 644 b -7 549 60 617 21 590 l 90 449 b 178 499 111 475 144 494 z "},"∫":{"ha":771,"x_min":0,"x_max":0,"o":"m -146 -318 b -8 -347 -106 -336 -47 -347 b 329 -101 147 -347 275 -281 b 460 711 383 79 397 513 b 626 840 486 794 543 840 b 718 821 665 840 700 828 l 764 971 b 626 1000 724 989 665 1000 b 289 754 471 1000 343 933 b 158 -58 235 574 221 140 b -8 -187 132 -142 75 -187 b -100 -168 -47 -187 -82 -175 z "},"±":{"ha":764,"x_min":0,"x_max":0,"o":"m 306 408 l 306 233 l 458 233 l 458 408 l 701 408 l 701 561 l 458 561 l 458 736 l 306 736 l 306 561 l 63 561 l 63 408 z m 63 194 l 63 42 l 701 42 l 701 194 z "},"ƒ":{"ha":744,"x_min":0,"x_max":0,"o":"m -115 -318 b 22 -347 -75 -336 -17 -347 b 360 -101 178 -347 306 -281 b 435 410 393 10 411 219 l 693 410 l 693 563 l 457 563 b 490 711 467 619 476 669 b 657 840 517 794 574 840 b 749 821 696 840 731 828 l 794 971 b 657 1000 754 989 696 1000 b 319 754 501 1000 374 933 b 282 563 304 706 293 638 l 40 563 l 40 410 l 263 410 b 189 -58 242 236 224 53 b 22 -187 163 -142 106 -187 b -69 -168 -17 -187 -51 -175 z "},"?":{"ha":694,"x_min":0,"x_max":0,"o":"m 224 104 b 344 -14 224 36 276 -14 b 467 104 413 -14 467 36 b 344 224 467 172 413 224 b 224 104 276 224 224 172 z m 258 735 b 358 819 263 775 297 819 b 458 733 418 819 458 785 b 236 413 458 624 236 592 b 300 261 236 335 285 279 l 440 358 b 417 408 428 371 417 385 b 639 736 417 492 639 532 b 358 986 639 879 515 986 b 83 781 207 986 108 890 z "},"¿":{"ha":694,"x_min":0,"x_max":0,"o":"m 471 569 b 350 688 471 638 418 688 b 228 569 282 688 228 638 b 350 450 228 501 282 450 b 471 569 418 450 471 501 z m 436 -96 b 336 -181 432 -136 397 -181 b 236 -94 276 -181 236 -146 b 458 226 236 15 458 47 b 394 378 458 304 410 360 l 254 281 b 278 231 267 268 278 254 b 56 -97 278 147 56 107 b 336 -347 56 -240 179 -347 b 611 -142 488 -347 586 -251 z "},">":{"ha":764,"x_min":0,"x_max":0,"o":"m 63 228 l 63 63 l 701 340 l 701 438 l 63 715 l 63 550 l 432 389 z "},"<":{"ha":764,"x_min":0,"x_max":0,"o":"m 332 389 l 701 550 l 701 715 l 63 438 l 63 340 l 701 63 l 701 228 z "},"{":{"ha":632,"x_min":0,"x_max":0,"o":"m 260 347 b 361 510 310 365 361 392 b 347 718 361 583 347 650 b 453 813 347 792 393 813 l 507 813 l 507 972 l 465 972 b 181 724 286 972 181 889 b 194 497 181 643 194 571 b 69 403 194 428 146 403 l 69 292 b 194 197 146 292 194 267 b 181 -29 194 124 181 51 b 465 -278 181 -194 286 -278 l 507 -278 l 507 -118 l 453 -118 b 347 -24 393 -118 347 -97 b 361 185 347 44 361 111 b 260 347 361 303 310 329 z "},"}":{"ha":632,"x_min":0,"x_max":0,"o":"m 372 347 b 271 185 322 329 271 303 b 285 -24 271 111 285 44 b 179 -118 285 -97 239 -118 l 125 -118 l 125 -278 l 167 -278 b 451 -29 346 -278 451 -194 b 438 197 451 51 438 124 b 563 292 438 267 486 292 l 563 403 b 438 497 486 403 438 428 b 451 724 438 571 451 643 b 167 972 451 889 346 972 l 125 972 l 125 813 l 179 813 b 285 718 239 813 285 792 b 271 510 285 650 271 583 b 372 347 271 392 322 365 z "},"∞":{"ha":1083,"x_min":0,"x_max":0,"o":"m 1049 385 b 768 672 1049 558 918 672 b 542 542 657 672 590 614 b 315 672 493 614 426 672 b 35 385 165 672 35 558 b 315 97 35 211 165 97 b 542 228 426 97 493 154 b 768 97 590 154 657 97 b 1049 385 918 97 1049 211 z m 768 519 b 896 385 847 519 896 460 b 768 250 896 310 847 250 b 625 385 700 250 663 310 b 768 519 663 460 700 519 z m 315 250 b 188 385 236 250 188 310 b 315 519 188 460 236 519 b 458 385 382 519 421 460 b 315 250 421 310 382 250 z "},"≥":{"ha":764,"x_min":0,"x_max":0,"o":"m 63 194 l 63 42 l 701 42 l 701 194 z m 365 485 l 63 388 l 63 226 l 701 436 l 701 533 l 63 743 l 63 582 z "},"≤":{"ha":764,"x_min":0,"x_max":0,"o":"m 63 194 l 63 42 l 701 42 l 701 194 z m 701 582 l 701 743 l 63 533 l 63 436 l 701 226 l 701 388 l 399 485 z "},"◊":{"ha":778,"x_min":0,"x_max":0,"o":"m 326 0 l 451 0 l 729 438 l 729 535 l 451 972 l 326 972 l 49 535 l 49 438 z m 197 486 l 389 785 l 579 486 l 389 186 z "},"‰":{"ha":1701,"x_min":0,"x_max":0,"o":"m 743 243 b 1007 -14 743 101 857 -14 b 1188 54 1078 -14 1140 11 b 1368 -14 1233 11 1297 -14 b 1632 243 1518 -14 1632 101 b 1368 500 1632 385 1518 500 b 1188 432 1297 500 1233 474 b 1007 500 1140 474 1078 500 b 743 243 857 500 743 385 z m 69 729 b 333 472 69 588 183 472 b 597 729 483 472 597 588 b 333 986 597 871 483 986 b 69 729 183 986 69 871 z m 431 729 b 333 625 431 672 393 625 b 236 729 274 625 236 672 b 333 833 236 786 274 833 b 431 729 393 833 431 786 z m 1104 243 b 1007 139 1104 186 1067 139 b 910 243 947 139 910 186 b 1007 347 910 300 947 347 b 1104 243 1067 347 1104 300 z m 1465 243 b 1368 139 1465 186 1428 139 b 1271 243 1308 139 1271 186 b 1368 347 1271 300 1308 347 b 1465 243 1428 347 1465 300 z m 465 0 l 1033 972 l 879 972 l 311 0 z "},"√":{"ha":847,"x_min":0,"x_max":0,"o":"m -14 674 l -14 521 l 119 521 l 363 0 l 488 0 l 833 972 l 672 972 l 414 249 l 218 674 z "},"˛":{"ha":472,"x_min":0,"x_max":0,"o":"m 150 14 b 97 -139 136 -6 97 -58 b 285 -306 97 -232 169 -306 b 375 -292 331 -306 364 -297 l 354 -140 b 319 -146 350 -142 338 -146 b 264 -87 286 -146 264 -121 b 310 14 264 -50 296 -3 z "},"Ω":{"ha":1042,"x_min":0,"x_max":0,"o":"m 521 819 b 826 479 703 819 826 669 b 628 111 826 324 747 200 l 628 0 l 1007 0 l 1007 167 l 906 167 b 1007 486 960 239 1007 356 b 521 986 1007 763 800 986 b 35 486 242 986 35 763 b 136 167 35 356 82 239 l 35 167 l 35 0 l 414 0 l 414 111 b 215 479 294 200 215 324 b 521 819 215 669 339 819 z "},"€":{"ha":903,"x_min":0,"x_max":0,"o":"m -7 521 l 90 521 l 90 451 l -7 451 l -7 299 l 118 299 b 538 -14 181 111 335 -14 b 889 175 697 -14 807 63 l 750 279 b 538 153 704 203 631 153 b 318 299 440 153 357 207 l 647 299 l 647 451 l 279 451 b 278 486 278 463 278 474 b 279 521 278 497 278 510 l 647 521 l 647 674 l 321 674 b 538 819 364 765 443 819 b 722 714 614 819 678 779 l 857 824 b 535 986 781 924 671 986 b 119 674 336 986 182 857 l -7 674 z "},"˝":{"ha":792,"x_min":0,"x_max":0,"o":"m 194 1000 l 97 778 l 222 778 l 389 1000 z m 500 1000 l 403 778 l 528 778 l 694 1000 z "},"˘":{"ha":611,"x_min":0,"x_max":0,"o":"m 368 1000 b 306 938 368 965 340 938 b 243 1000 271 938 243 965 l 97 1000 b 306 792 97 885 190 792 b 514 1000 421 792 514 885 z "},"@":{"ha":1389,"x_min":0,"x_max":0,"o":"m 531 347 b 690 507 531 435 596 507 b 814 457 742 507 789 485 l 814 301 b 817 240 814 278 815 258 b 690 188 793 211 744 188 b 531 347 596 188 531 260 z m 1035 49 b 1292 382 1213 49 1292 203 b 699 958 1292 715 1013 958 b 97 347 360 958 97 683 b 704 -264 97 8 364 -264 b 1056 -147 840 -264 961 -218 l 969 -21 b 694 -111 894 -81 797 -111 b 250 347 449 -111 250 94 b 700 806 250 603 451 806 b 1139 382 931 806 1139 631 b 1039 188 1139 304 1122 188 b 981 219 1010 188 992 201 b 967 297 971 236 967 254 l 967 632 l 819 632 l 819 603 b 668 646 771 635 718 646 b 378 347 540 646 378 538 b 681 49 378 150 551 49 b 871 122 775 49 838 92 b 1035 49 911 78 971 49 z "},"º":{"ha":578,"x_min":0,"x_max":0,"o":"m 390 764 b 289 653 390 701 353 653 b 188 764 225 653 188 701 b 289 875 188 826 225 875 b 390 764 353 875 390 826 z m 63 764 b 289 542 63 642 151 542 b 515 764 426 542 515 642 b 289 986 515 886 426 986 b 63 764 151 986 63 886 z "},"ª":{"ha":578,"x_min":0,"x_max":0,"o":"m 515 978 l 392 978 l 392 947 b 272 986 358 974 319 986 b 63 764 156 986 63 889 b 117 614 63 706 83 653 b 274 542 154 571 213 542 b 392 581 319 542 360 554 l 392 550 l 515 550 z m 390 703 b 294 653 369 672 338 653 b 188 764 233 653 188 701 b 293 875 188 822 229 875 b 390 824 336 875 368 856 z "},"®":{"ha":1167,"x_min":0,"x_max":0,"o":"m 97 486 b 583 0 97 218 315 0 b 1069 486 851 0 1069 218 b 583 972 1069 754 851 972 b 97 486 315 972 97 754 z m 549 446 l 697 221 l 829 221 l 669 454 b 703 469 682 458 693 463 b 771 592 744 494 771 538 b 718 711 771 640 751 682 b 585 753 689 738 651 753 l 396 753 l 396 221 l 517 221 l 517 446 z m 517 544 l 517 642 l 589 642 b 640 622 617 642 631 633 b 650 592 646 615 650 604 b 640 563 650 581 646 569 b 589 544 631 550 617 544 z m 194 486 b 583 875 194 701 368 875 b 972 486 799 875 972 701 b 583 97 972 271 799 97 b 194 486 368 97 194 271 z "},"©":{"ha":1167,"x_min":0,"x_max":0,"o":"m 97 486 b 583 0 97 218 315 0 b 1069 486 851 0 1069 218 b 583 972 1069 754 851 972 b 97 486 315 972 97 754 z m 194 486 b 583 875 194 701 368 875 b 972 486 799 875 972 701 b 583 97 972 271 799 97 b 194 486 368 97 194 271 z m 721 369 b 601 319 690 339 649 319 b 435 486 508 319 435 393 b 597 654 435 578 507 654 b 703 619 638 654 674 640 l 771 701 b 596 765 728 743 667 765 b 314 486 438 765 314 647 b 603 208 314 328 440 208 b 792 285 679 208 753 244 z "},"™":{"ha":1222,"x_min":0,"x_max":0,"o":"m 97 972 l 97 861 l 236 861 l 236 440 l 357 440 l 357 861 l 496 861 l 496 972 z m 639 972 l 564 972 l 564 440 l 688 440 l 688 694 l 814 513 l 875 513 l 1001 694 l 1001 440 l 1125 440 l 1125 972 l 1051 972 l 846 671 z "},"B":{"ha":868,"x_min":0,"x_max":0,"o":"m 111 972 l 111 0 l 490 0 b 744 88 615 0 690 33 b 833 297 799 140 833 215 b 688 546 833 406 774 503 b 750 708 719 579 750 644 b 660 904 750 788 714 857 b 442 972 613 946 551 972 z m 299 806 l 431 806 b 535 771 489 806 515 792 b 563 701 551 753 563 728 b 535 632 563 675 551 650 b 431 597 515 611 489 597 l 299 597 z m 299 167 l 299 431 l 486 431 b 611 388 551 431 588 414 b 646 299 633 364 646 333 b 611 210 646 264 633 233 b 486 167 588 183 551 167 z "},"»":{"ha":915,"x_min":0,"x_max":0,"o":"m 444 607 l 661 343 l 444 79 l 643 79 l 818 294 l 818 392 l 643 607 z m 56 607 l 272 343 l 56 79 l 254 79 l 429 294 l 429 392 l 254 607 z "},"É":{"ha":764,"x_min":0,"x_max":0,"o":"m 694 806 l 694 972 l 111 972 l 111 0 l 708 0 l 708 167 l 299 167 l 299 438 l 597 438 l 597 604 l 299 604 l 299 806 z m 431 1278 l 333 1056 l 458 1056 l 625 1278 z "},"←":{"ha":994,"x_min":0,"x_max":0,"o":"m 911 285 l 911 438 l 326 438 l 563 674 l 346 674 l 83 410 l 83 313 l 346 49 l 563 49 l 326 285 z "},"→":{"ha":994,"x_min":0,"x_max":0,"o":"m 668 285 l 432 49 l 649 49 l 911 313 l 911 410 l 649 674 l 432 674 l 668 438 l 83 438 l 83 285 z "},"↖":{"ha":840,"x_min":0,"x_max":0,"o":"m 153 674 l 83 604 l 83 236 l 236 83 l 236 414 l 650 0 l 757 107 l 343 521 l 675 521 l 522 674 z "},"↗":{"ha":840,"x_min":0,"x_max":0,"o":"m 318 674 l 165 521 l 497 521 l 83 107 l 190 0 l 604 414 l 604 83 l 757 236 l 757 604 l 688 674 z "},"⁰":{"ha":469,"x_min":0,"x_max":0,"o":"m 181 722 b 235 861 181 794 190 861 b 289 722 279 861 289 794 b 235 583 289 650 279 583 b 181 722 190 583 181 650 z m 42 722 b 235 458 42 583 90 458 b 428 722 385 458 428 583 b 235 986 428 861 385 986 b 42 722 90 986 42 861 z "},"⁴":{"ha":486,"x_min":0,"x_max":0,"o":"m 367 972 l 283 972 l 28 639 l 28 569 l 249 569 l 249 472 l 367 472 l 367 569 l 458 569 l 458 674 l 367 674 z m 186 674 l 249 754 l 249 674 z "},"⁵":{"ha":408,"x_min":0,"x_max":0,"o":"m 14 531 b 178 458 47 489 106 458 b 374 636 292 458 374 529 b 192 813 374 721 314 813 l 182 813 l 186 861 l 339 861 l 339 972 l 75 972 l 49 699 l 124 688 b 174 703 136 696 157 703 b 244 636 211 703 244 676 b 176 569 244 596 214 569 b 106 606 146 569 121 586 z "},"⁶":{"ha":458,"x_min":0,"x_max":0,"o":"m 292 638 b 231 576 292 604 264 576 b 167 638 193 576 167 603 b 183 683 167 654 174 671 b 231 699 194 692 211 699 b 292 638 268 699 292 671 z m 354 972 l 204 972 l 85 778 b 35 635 65 744 35 693 b 226 458 35 538 115 458 b 424 638 333 458 424 538 b 253 808 424 726 363 807 z "},"⁷":{"ha":396,"x_min":0,"x_max":0,"o":"m 28 972 l 28 854 l 213 854 l 42 472 l 181 472 l 375 903 l 375 972 z "},"⁸":{"ha":450,"x_min":0,"x_max":0,"o":"m 392 835 b 225 986 392 914 324 986 b 58 839 128 986 58 917 b 96 751 58 804 75 772 b 35 628 60 722 35 678 b 225 458 35 535 113 458 b 415 628 338 458 415 535 b 357 751 415 678 394 724 b 392 835 379 772 392 801 z m 167 631 b 225 686 167 661 189 686 b 283 631 261 686 283 661 b 225 576 283 600 261 576 b 167 631 189 576 167 600 z m 188 829 b 225 868 188 850 203 868 b 263 829 247 868 263 850 b 225 792 263 808 247 792 b 188 829 203 792 188 808 z "},"⁹":{"ha":458,"x_min":0,"x_max":0,"o":"m 167 807 b 228 868 167 840 194 868 b 292 807 265 868 292 842 b 275 761 292 790 285 774 b 228 746 264 753 247 746 b 167 807 190 746 167 774 z m 104 472 l 254 472 l 374 667 b 424 810 393 700 424 751 b 229 986 424 919 324 986 b 35 807 124 986 35 906 b 206 636 35 718 96 638 z "},"₀":{"ha":469,"x_min":0,"x_max":0,"o":"m 181 250 b 235 389 181 322 190 389 b 289 250 279 389 289 322 b 235 111 289 178 279 111 b 181 250 190 111 181 178 z m 42 250 b 235 -14 42 111 90 -14 b 428 250 385 -14 428 111 b 235 514 428 389 385 514 b 42 250 90 514 42 389 z "},"₁":{"ha":368,"x_min":0,"x_max":0,"o":"m 42 251 l 167 315 l 167 0 l 306 0 l 306 486 l 222 486 l 42 393 z "},"₂":{"ha":433,"x_min":0,"x_max":0,"o":"m 174 353 b 217 389 181 374 196 389 b 253 350 240 389 253 371 b 224 290 253 333 244 317 l 42 69 l 42 0 l 399 0 l 399 118 l 249 118 l 331 219 b 389 357 365 263 389 307 b 222 514 389 450 313 514 b 49 389 140 514 69 465 z "},"₃":{"ha":411,"x_min":0,"x_max":0,"o":"m 108 217 b 163 228 122 222 142 228 b 233 163 201 228 233 200 b 165 100 233 124 200 100 b 82 138 119 100 93 124 l 0 54 b 169 -14 46 8 106 -14 b 369 163 275 -14 369 57 b 267 313 369 228 331 286 l 350 431 l 350 500 l 31 500 l 31 389 l 189 389 l 108 286 z "},"₄":{"ha":486,"x_min":0,"x_max":0,"o":"m 367 500 l 283 500 l 28 167 l 28 97 l 249 97 l 249 0 l 367 0 l 367 97 l 458 97 l 458 201 l 367 201 z m 186 201 l 249 282 l 249 201 z "},"₅":{"ha":408,"x_min":0,"x_max":0,"o":"m 14 58 b 178 -14 47 17 106 -14 b 374 164 292 -14 374 57 b 192 340 374 249 314 340 l 182 340 l 186 389 l 339 389 l 339 500 l 75 500 l 49 226 l 124 215 b 174 231 136 224 157 231 b 244 164 211 231 244 204 b 176 97 244 124 214 97 b 106 133 146 97 121 114 z "},"₆":{"ha":458,"x_min":0,"x_max":0,"o":"m 292 165 b 231 104 292 132 264 104 b 167 165 193 104 167 131 b 183 211 167 182 174 199 b 231 226 194 219 211 226 b 292 165 268 226 292 199 z m 354 500 l 204 500 l 85 306 b 35 163 65 272 35 221 b 226 -14 35 65 115 -14 b 424 165 333 -14 424 65 b 253 336 424 254 363 335 z "},"₇":{"ha":396,"x_min":0,"x_max":0,"o":"m 28 500 l 28 382 l 213 382 l 42 0 l 181 0 l 375 431 l 375 500 z "},"₈":{"ha":450,"x_min":0,"x_max":0,"o":"m 392 363 b 225 514 392 442 324 514 b 58 367 128 514 58 444 b 96 279 58 332 75 300 b 35 156 60 250 35 206 b 225 -14 35 63 113 -14 b 415 156 338 -14 415 63 b 357 279 415 206 394 251 b 392 363 379 300 392 329 z m 167 158 b 225 214 167 189 189 214 b 283 158 261 214 283 189 b 225 104 283 128 261 104 b 167 158 189 104 167 128 z m 188 357 b 225 396 188 378 203 396 b 263 357 247 396 263 378 b 225 319 263 336 247 319 b 188 357 203 319 188 336 z "},"₉":{"ha":458,"x_min":0,"x_max":0,"o":"m 167 335 b 228 396 167 368 194 396 b 292 335 265 396 292 369 b 275 289 292 318 285 301 b 228 274 264 281 247 274 b 167 335 190 274 167 301 z m 104 0 l 254 0 l 374 194 b 424 338 393 228 424 279 b 229 514 424 447 324 514 b 35 335 124 514 35 433 b 206 164 35 246 96 165 z "},"↙":{"ha":840,"x_min":0,"x_max":0,"o":"m 522 0 l 675 153 l 343 153 l 757 567 l 650 674 l 236 260 l 236 590 l 83 438 l 83 69 l 153 0 z "},"↘":{"ha":840,"x_min":0,"x_max":0,"o":"m 688 0 l 757 69 l 757 438 l 604 590 l 604 260 l 190 674 l 83 567 l 497 153 l 165 153 l 318 0 z "},"ﬀ":{"ha":1153,"x_min":0,"x_max":0,"o":"m 1104 988 b 997 1000 1067 997 1033 1000 b 788 921 906 1000 835 967 b 715 701 740 875 715 810 l 715 674 l 382 674 l 382 694 b 407 801 382 757 392 782 b 508 840 429 828 464 840 b 563 833 525 840 547 838 l 590 988 b 483 1000 553 997 519 1000 b 274 921 392 1000 321 967 b 201 701 226 875 201 810 l 201 674 l 28 674 l 28 521 l 201 521 l 201 0 l 382 0 l 382 521 l 715 521 l 715 0 l 896 0 l 896 521 l 1104 521 l 1104 674 l 896 674 l 896 694 b 921 801 896 757 906 782 b 1022 840 943 828 978 840 b 1076 833 1039 840 1061 838 z "},"ﬃ":{"ha":1514,"x_min":0,"x_max":0,"o":"m 1104 988 b 997 1000 1067 997 1033 1000 b 788 921 906 1000 835 967 b 715 701 740 875 715 810 l 715 674 l 382 674 l 382 694 b 407 801 382 757 392 782 b 508 840 429 828 464 840 b 563 833 525 840 547 838 l 590 988 b 483 1000 553 997 519 1000 b 274 921 392 1000 321 967 b 201 701 226 875 201 810 l 201 674 l 28 674 l 28 521 l 201 521 l 201 0 l 382 0 l 382 521 l 715 521 l 715 0 l 896 0 l 896 521 l 1229 521 l 1229 0 l 1410 0 l 1410 674 l 896 674 l 896 694 b 921 801 896 757 906 782 b 1022 840 943 828 978 840 b 1076 833 1039 840 1061 838 z m 1201 913 b 1319 797 1201 847 1254 797 b 1438 913 1385 797 1438 847 b 1319 1028 1438 978 1385 1028 b 1201 913 1254 1028 1201 978 z "},"ﬄ":{"ha":1514,"x_min":0,"x_max":0,"o":"m 1104 988 b 997 1000 1067 997 1033 1000 b 788 921 906 1000 835 967 b 715 701 740 875 715 810 l 715 674 l 382 674 l 382 694 b 407 801 382 757 392 782 b 508 840 429 828 464 840 b 563 833 525 840 547 838 l 590 988 b 483 1000 553 997 519 1000 b 274 921 392 1000 321 967 b 201 701 226 875 201 810 l 201 674 l 28 674 l 28 521 l 201 521 l 201 0 l 382 0 l 382 521 l 715 521 l 715 0 l 896 0 l 896 521 l 1229 521 l 1229 0 l 1410 0 l 1410 986 l 1229 986 l 1229 674 l 896 674 l 896 694 b 921 801 896 757 906 782 b 1022 840 943 828 978 840 b 1076 833 1039 840 1061 838 z "},"¹":{"ha":361,"x_min":0,"x_max":0,"o":"m 42 751 l 153 808 l 153 472 l 292 472 l 292 972 l 208 972 l 42 886 z "},"²":{"ha":440,"x_min":0,"x_max":0,"o":"m 174 825 b 217 861 181 846 196 861 b 253 822 240 861 253 843 b 224 763 253 806 244 789 l 42 542 l 42 472 l 399 472 l 399 590 l 249 590 l 331 692 b 389 829 365 735 389 779 b 222 986 389 922 313 986 b 49 861 140 986 69 938 z "},"½":{"ha":1010,"x_min":0,"x_max":0,"o":"m 293 0 l 861 972 l 707 972 l 139 0 z m 90 751 l 201 808 l 201 472 l 340 472 l 340 972 l 257 972 l 90 886 z m 743 353 b 786 389 750 374 765 389 b 822 350 810 389 822 371 b 793 290 822 333 814 317 l 611 69 l 611 0 l 968 0 l 968 118 l 818 118 l 900 219 b 958 357 935 263 958 307 b 792 514 958 450 882 514 b 618 389 710 514 639 465 z "},"¼":{"ha":1007,"x_min":0,"x_max":0,"o":"m 293 0 l 861 972 l 707 972 l 139 0 z m 90 751 l 201 808 l 201 472 l 340 472 l 340 972 l 257 972 l 90 886 z m 832 500 l 749 500 l 493 167 l 493 97 l 714 97 l 714 0 l 832 0 l 832 97 l 924 97 l 924 201 l 832 201 z m 651 201 l 714 282 l 714 201 z "},"¾":{"ha":1025,"x_min":0,"x_max":0,"o":"m 108 689 b 163 700 122 694 142 700 b 233 635 201 700 233 672 b 165 572 233 596 200 572 b 82 610 119 572 93 596 l 0 526 b 169 458 46 481 106 458 b 369 635 275 458 369 529 b 267 785 369 700 331 758 l 350 903 l 350 972 l 31 972 l 31 861 l 189 861 l 108 758 z m 274 0 l 842 972 l 688 972 l 119 0 z m 813 500 l 729 500 l 474 167 l 474 97 l 694 97 l 694 0 l 813 0 l 813 97 l 904 97 l 904 201 l 813 201 z m 632 201 l 694 282 l 694 201 z "},"³":{"ha":411,"x_min":0,"x_max":0,"o":"m 108 689 b 163 700 122 694 142 700 b 233 635 201 700 233 672 b 165 572 233 596 200 572 b 82 610 119 572 93 596 l 0 526 b 169 458 46 481 106 458 b 369 635 275 458 369 529 b 267 785 369 700 331 758 l 350 903 l 350 972 l 31 972 l 31 861 l 189 861 l 108 758 z "},"¤":{"ha":847,"x_min":0,"x_max":0,"o":"m 131 488 b 167 347 131 436 143 389 l 56 238 l 174 119 l 285 229 b 424 194 326 207 374 194 b 564 229 475 194 522 207 l 674 119 l 792 238 l 682 347 b 717 488 704 389 717 436 b 682 626 717 538 704 585 l 792 738 l 674 856 l 564 744 b 424 781 522 768 475 781 b 285 744 374 781 326 768 l 174 856 l 56 738 l 167 626 b 131 488 143 585 131 538 z m 311 488 b 424 600 311 550 361 600 b 536 488 486 600 536 550 b 424 375 536 425 486 375 b 311 488 361 375 311 425 z "},"∕":{"ha":736,"x_min":0,"x_max":0,"o":"m 161 0 l 729 972 l 575 972 l 7 0 z "},"Ā":{"ha":965,"x_min":0,"x_max":0,"o":"m 260 1236 l 260 1097 l 704 1097 l 704 1236 z m 196 0 l 288 215 l 678 215 l 769 0 l 965 0 l 549 972 l 417 972 l 0 0 z m 482 669 l 606 382 l 358 382 z "},"ā":{"ha":854,"x_min":0,"x_max":0,"o":"m 218 958 l 218 819 l 663 819 l 663 958 z m 569 236 b 407 153 535 186 475 153 b 229 336 306 153 229 231 b 403 521 229 433 297 521 b 569 438 472 521 532 488 z m 750 674 l 576 674 l 576 619 b 379 688 524 663 456 688 b 49 336 196 688 49 535 b 135 100 49 244 82 161 b 389 -14 194 31 289 -14 b 576 54 457 -14 521 7 l 576 0 l 750 0 z "},"Ă":{"ha":965,"x_min":0,"x_max":0,"o":"m 544 1278 b 482 1215 544 1243 517 1215 b 419 1278 447 1215 419 1243 l 274 1278 b 482 1069 274 1163 367 1069 b 690 1278 597 1069 690 1163 z m 196 0 l 288 215 l 678 215 l 769 0 l 965 0 l 549 972 l 417 972 l 0 0 z m 482 669 l 606 382 l 358 382 z "},"ă":{"ha":854,"x_min":0,"x_max":0,"o":"m 503 1000 b 440 938 503 965 475 938 b 378 1000 406 938 378 965 l 232 1000 b 440 792 232 885 325 792 b 649 1000 556 792 649 885 z m 569 236 b 407 153 535 186 475 153 b 229 336 306 153 229 231 b 403 521 229 433 297 521 b 569 438 472 521 532 488 z m 750 674 l 576 674 l 576 619 b 379 688 524 663 456 688 b 49 336 196 688 49 535 b 135 100 49 244 82 161 b 389 -14 194 31 289 -14 b 576 54 457 -14 521 7 l 576 0 l 750 0 z "},"Ą":{"ha":965,"x_min":0,"x_max":0,"o":"m 196 0 l 288 215 l 678 215 l 785 -36 b 763 -139 774 -62 763 -97 b 950 -306 763 -232 835 -306 b 1040 -292 996 -306 1029 -297 l 1019 -140 b 985 -146 1015 -142 1003 -146 b 929 -87 951 -146 929 -121 b 965 0 929 -57 950 -22 l 549 972 l 417 972 l 0 0 z m 482 669 l 606 382 l 358 382 z "},"ą":{"ha":854,"x_min":0,"x_max":0,"o":"m 750 674 l 576 674 l 576 619 b 379 688 524 663 456 688 b 49 336 196 688 49 535 b 135 100 49 244 82 161 b 389 -14 194 31 289 -14 b 576 54 457 -14 521 7 l 576 -10 b 547 -139 564 -40 547 -82 b 735 -306 547 -232 619 -306 b 825 -292 781 -306 814 -297 l 804 -140 b 769 -146 800 -142 788 -146 b 714 -87 736 -146 714 -121 b 750 0 714 -57 735 -22 z m 569 236 b 407 153 535 186 475 153 b 229 336 306 153 229 231 b 403 521 229 433 297 521 b 569 438 472 521 532 488 z "},"Ć":{"ha":993,"x_min":0,"x_max":0,"o":"m 553 819 b 789 719 649 819 731 778 l 910 847 b 554 986 822 932 699 986 b 42 486 251 986 42 765 b 557 -14 42 207 254 -14 b 965 172 735 -14 879 63 l 836 288 b 561 153 779 214 688 153 b 229 486 374 153 229 297 b 553 819 229 671 368 819 z m 558 1278 l 461 1056 l 586 1056 l 753 1278 z "},"ć":{"ha":750,"x_min":0,"x_max":0,"o":"m 576 242 b 415 153 547 197 489 153 b 229 336 306 153 229 231 b 411 521 229 439 307 521 b 567 440 476 521 531 488 l 694 553 b 411 688 632 633 528 688 b 49 336 206 688 49 532 b 410 -14 49 142 201 -14 b 715 138 536 -14 636 32 z m 438 1000 l 340 778 l 465 778 l 632 1000 z "},"Ĉ":{"ha":993,"x_min":0,"x_max":0,"o":"m 553 819 b 789 719 649 819 731 778 l 910 847 b 554 986 822 932 699 986 b 42 486 251 986 42 765 b 557 -14 42 207 254 -14 b 965 172 735 -14 879 63 l 836 288 b 561 153 779 214 688 153 b 229 486 374 153 229 297 b 553 819 229 671 368 819 z m 451 1278 l 313 1056 l 438 1056 l 549 1181 l 660 1056 l 785 1056 l 646 1278 z "},"ĉ":{"ha":750,"x_min":0,"x_max":0,"o":"m 576 242 b 415 153 547 197 489 153 b 229 336 306 153 229 231 b 411 521 229 439 307 521 b 567 440 476 521 531 488 l 694 553 b 411 688 632 633 528 688 b 49 336 206 688 49 532 b 410 -14 49 142 201 -14 b 715 138 536 -14 636 32 z m 306 1000 l 167 778 l 292 778 l 403 903 l 514 778 l 639 778 l 500 1000 z "},"Ċ":{"ha":993,"x_min":0,"x_max":0,"o":"m 553 819 b 789 719 649 819 731 778 l 910 847 b 554 986 822 932 699 986 b 42 486 251 986 42 765 b 557 -14 42 207 254 -14 b 965 172 735 -14 879 63 l 836 288 b 561 153 779 214 688 153 b 229 486 374 153 229 297 b 553 819 229 671 368 819 z m 438 1190 b 556 1075 438 1125 490 1075 b 674 1190 621 1075 674 1125 b 556 1306 674 1256 621 1306 b 438 1190 490 1306 438 1256 z "},"ċ":{"ha":750,"x_min":0,"x_max":0,"o":"m 576 242 b 415 153 547 197 489 153 b 229 336 306 153 229 231 b 411 521 229 439 307 521 b 567 440 476 521 531 488 l 694 553 b 411 688 632 633 528 688 b 49 336 206 688 49 532 b 410 -14 49 142 201 -14 b 715 138 536 -14 636 32 z m 257 913 b 375 797 257 847 310 797 b 493 913 440 797 493 847 b 375 1028 493 978 440 1028 b 257 913 310 1028 257 978 z "},"Č":{"ha":993,"x_min":0,"x_max":0,"o":"m 553 819 b 789 719 649 819 731 778 l 910 847 b 554 986 822 932 699 986 b 42 486 251 986 42 765 b 557 -14 42 207 254 -14 b 965 172 735 -14 879 63 l 836 288 b 561 153 779 214 688 153 b 229 486 374 153 229 297 b 553 819 229 671 368 819 z m 646 1056 l 785 1278 l 660 1278 l 549 1153 l 438 1278 l 313 1278 l 451 1056 z "},"č":{"ha":750,"x_min":0,"x_max":0,"o":"m 576 242 b 415 153 547 197 489 153 b 229 336 306 153 229 231 b 411 521 229 439 307 521 b 567 440 476 521 531 488 l 694 553 b 411 688 632 633 528 688 b 49 336 206 688 49 532 b 410 -14 49 142 201 -14 b 715 138 536 -14 636 32 z m 500 778 l 639 1000 l 514 1000 l 403 875 l 292 1000 l 167 1000 l 306 778 z "},"Ď":{"ha":986,"x_min":0,"x_max":0,"o":"m 757 486 b 686 275 757 406 731 331 b 438 167 632 207 553 167 l 299 167 l 299 806 l 438 806 b 686 697 553 806 632 765 b 757 486 731 642 757 567 z m 111 972 l 111 0 l 417 0 b 751 92 571 0 672 33 b 944 486 871 181 944 325 b 751 881 944 647 871 792 b 417 972 672 939 571 972 z m 521 1056 l 660 1278 l 535 1278 l 424 1153 l 313 1278 l 188 1278 l 326 1056 z "},"ď":{"ha":951,"x_min":0,"x_max":0,"o":"m 903 972 l 806 750 l 931 750 l 1097 972 z m 569 236 b 407 153 535 186 475 153 b 229 336 306 153 229 231 b 403 521 229 433 297 521 b 569 438 472 521 532 488 z m 750 0 l 750 986 l 569 986 l 569 625 b 379 688 517 667 453 688 b 49 336 196 688 49 535 b 135 100 49 244 82 161 b 389 -14 194 31 289 -14 b 576 54 457 -14 521 7 l 576 0 z "},"Đ":{"ha":1014,"x_min":0,"x_max":0,"o":"m 0 438 l 139 438 l 139 0 l 444 0 b 779 92 599 0 700 33 b 972 486 899 181 972 325 b 779 881 972 647 899 792 b 444 972 700 939 599 972 l 139 972 l 139 604 l 0 604 z m 785 486 b 714 275 785 406 758 331 b 465 167 660 207 581 167 l 326 167 l 326 438 l 604 438 l 604 604 l 326 604 l 326 806 l 465 806 b 714 697 581 806 660 765 b 785 486 758 642 785 567 z "},"đ":{"ha":854,"x_min":0,"x_max":0,"o":"m 750 0 l 750 750 l 861 750 l 861 903 l 750 903 l 750 986 l 569 986 l 569 903 l 389 903 l 389 750 l 569 750 l 569 625 b 379 688 517 667 453 688 b 49 336 196 688 49 535 b 135 100 49 244 82 161 b 389 -14 194 31 289 -14 b 576 54 457 -14 521 7 l 576 0 z m 569 236 b 407 153 535 186 475 153 b 229 336 306 153 229 231 b 403 521 229 433 297 521 b 569 438 472 521 532 488 z "},"Ē":{"ha":764,"x_min":0,"x_max":0,"o":"m 694 806 l 694 972 l 111 972 l 111 0 l 708 0 l 708 167 l 299 167 l 299 438 l 597 438 l 597 604 l 299 604 l 299 806 z m 174 1236 l 174 1097 l 618 1097 l 618 1236 z "},"ē":{"ha":743,"x_min":0,"x_max":0,"o":"m 575 210 b 406 132 543 175 482 132 b 224 292 310 132 233 197 l 690 292 b 694 343 693 307 694 325 b 376 688 694 531 563 688 b 49 336 176 688 49 524 b 401 -14 49 125 200 -14 b 678 107 506 -14 613 29 z m 232 424 b 376 542 240 485 301 542 b 510 424 450 542 504 483 z m 153 958 l 153 819 l 597 819 l 597 958 z "},"Ė":{"ha":764,"x_min":0,"x_max":0,"o":"m 694 806 l 694 972 l 111 972 l 111 0 l 708 0 l 708 167 l 299 167 l 299 438 l 597 438 l 597 604 l 299 604 l 299 806 z m 292 1190 b 410 1075 292 1125 344 1075 b 528 1190 475 1075 528 1125 b 410 1306 528 1256 475 1306 b 292 1190 344 1306 292 1256 z "},"ė":{"ha":743,"x_min":0,"x_max":0,"o":"m 575 210 b 406 132 543 175 482 132 b 224 292 310 132 233 197 l 690 292 b 694 343 693 307 694 325 b 376 688 694 531 563 688 b 49 336 176 688 49 524 b 401 -14 49 125 200 -14 b 678 107 506 -14 613 29 z m 232 424 b 376 542 240 485 301 542 b 510 424 450 542 504 483 z m 267 913 b 385 797 267 847 319 797 b 503 913 450 797 503 847 b 385 1028 503 978 450 1028 b 267 913 319 1028 267 978 z "},"Ę":{"ha":764,"x_min":0,"x_max":0,"o":"m 694 806 l 694 972 l 111 972 l 111 0 l 451 0 b 410 -139 435 -25 410 -72 b 597 -306 410 -232 482 -306 b 688 -292 643 -306 676 -297 l 667 -140 b 632 -146 663 -142 650 -146 b 576 -87 599 -146 576 -121 b 611 0 576 -57 596 -22 l 708 0 l 708 167 l 299 167 l 299 438 l 597 438 l 597 604 l 299 604 l 299 806 z "},"ę":{"ha":743,"x_min":0,"x_max":0,"o":"m 575 210 b 406 132 543 175 482 132 b 224 292 310 132 233 197 l 690 292 b 694 343 693 307 694 325 b 376 688 694 531 563 688 b 49 336 176 688 49 524 b 358 -11 49 140 179 6 b 324 -139 343 -39 324 -82 b 511 -306 324 -232 396 -306 b 601 -292 557 -306 590 -297 l 581 -140 b 546 -146 576 -142 564 -146 b 490 -87 513 -146 490 -121 b 531 8 490 -53 515 -11 b 678 107 588 28 640 61 z m 232 424 b 376 542 240 485 301 542 b 510 424 450 542 504 483 z "},"Ě":{"ha":764,"x_min":0,"x_max":0,"o":"m 694 806 l 694 972 l 111 972 l 111 0 l 708 0 l 708 167 l 299 167 l 299 438 l 597 438 l 597 604 l 299 604 l 299 806 z m 493 1056 l 632 1278 l 507 1278 l 396 1153 l 285 1278 l 160 1278 l 299 1056 z "},"ě":{"ha":743,"x_min":0,"x_max":0,"o":"m 575 210 b 406 132 543 175 482 132 b 224 292 310 132 233 197 l 690 292 b 694 343 693 307 694 325 b 376 688 694 531 563 688 b 49 336 176 688 49 524 b 401 -14 49 125 200 -14 b 678 107 506 -14 613 29 z m 232 424 b 376 542 240 485 301 542 b 510 424 450 542 504 483 z m 472 778 l 611 1000 l 486 1000 l 375 875 l 264 1000 l 139 1000 l 278 778 z "},"Ĝ":{"ha":1049,"x_min":0,"x_max":0,"o":"m 451 1278 l 313 1056 l 438 1056 l 549 1181 l 660 1056 l 785 1056 l 646 1278 z m 553 819 b 789 719 649 819 731 778 l 910 847 b 554 986 822 932 699 986 b 42 486 251 986 42 765 b 557 -14 42 207 254 -14 b 965 172 735 -14 879 63 l 965 604 l 528 604 l 528 438 l 778 438 l 778 228 b 561 153 722 183 650 153 b 229 486 374 153 229 297 b 553 819 229 671 368 819 z "},"ĝ":{"ha":854,"x_min":0,"x_max":0,"o":"m 340 1000 l 201 778 l 326 778 l 438 903 l 549 778 l 674 778 l 535 1000 z m 750 674 l 576 674 l 576 619 b 379 688 524 663 456 688 b 49 336 196 688 49 535 b 133 100 49 244 81 161 b 389 -14 193 31 289 -14 b 569 47 457 -14 515 6 l 569 25 b 528 -133 569 -61 556 -103 b 390 -187 497 -169 449 -187 b 181 -90 279 -187 217 -129 l 67 -208 b 390 -347 133 -286 258 -347 b 689 -212 519 -347 628 -297 b 750 38 729 -156 750 -83 z m 569 236 b 407 153 535 186 475 153 b 229 336 306 153 229 231 b 403 521 229 433 297 521 b 569 438 472 521 532 488 z "},"Ğ":{"ha":1049,"x_min":0,"x_max":0,"o":"m 553 819 b 789 719 649 819 731 778 l 910 847 b 554 986 822 932 699 986 b 42 486 251 986 42 765 b 557 -14 42 207 254 -14 b 965 172 735 -14 879 63 l 965 604 l 528 604 l 528 438 l 778 438 l 778 228 b 561 153 722 183 650 153 b 229 486 374 153 229 297 b 553 819 229 671 368 819 z m 614 1278 b 551 1215 614 1243 586 1215 b 489 1278 517 1215 489 1243 l 343 1278 b 551 1069 343 1163 436 1069 b 760 1278 667 1069 760 1163 z "},"ğ":{"ha":854,"x_min":0,"x_max":0,"o":"m 503 1000 b 440 938 503 965 475 938 b 378 1000 406 938 378 965 l 232 1000 b 440 792 232 885 325 792 b 649 1000 556 792 649 885 z m 750 674 l 576 674 l 576 619 b 379 688 524 663 456 688 b 49 336 196 688 49 535 b 133 100 49 244 81 161 b 389 -14 193 31 289 -14 b 569 47 457 -14 515 6 l 569 25 b 528 -133 569 -61 556 -103 b 390 -187 497 -169 449 -187 b 181 -90 279 -187 217 -129 l 67 -208 b 390 -347 133 -286 258 -347 b 689 -212 519 -347 628 -297 b 750 38 729 -156 750 -83 z m 569 236 b 407 153 535 186 475 153 b 229 336 306 153 229 231 b 403 521 229 433 297 521 b 569 438 472 521 532 488 z "},"Ġ":{"ha":1049,"x_min":0,"x_max":0,"o":"m 438 1190 b 556 1075 438 1125 490 1075 b 674 1190 621 1075 674 1125 b 556 1306 674 1256 621 1306 b 438 1190 490 1306 438 1256 z m 553 819 b 789 719 649 819 731 778 l 910 847 b 554 986 822 932 699 986 b 42 486 251 986 42 765 b 557 -14 42 207 254 -14 b 965 172 735 -14 879 63 l 965 604 l 528 604 l 528 438 l 778 438 l 778 228 b 561 153 722 183 650 153 b 229 486 374 153 229 297 b 553 819 229 671 368 819 z "},"ġ":{"ha":854,"x_min":0,"x_max":0,"o":"m 319 913 b 438 797 319 847 372 797 b 556 913 503 797 556 847 b 438 1028 556 978 503 1028 b 319 913 372 1028 319 978 z m 750 674 l 576 674 l 576 619 b 379 688 524 663 456 688 b 49 336 196 688 49 535 b 133 100 49 244 81 161 b 389 -14 193 31 289 -14 b 569 47 457 -14 515 6 l 569 25 b 528 -133 569 -61 556 -103 b 390 -187 497 -169 449 -187 b 181 -90 279 -187 217 -129 l 67 -208 b 390 -347 133 -286 258 -347 b 689 -212 519 -347 628 -297 b 750 38 729 -156 750 -83 z m 569 236 b 407 153 535 186 475 153 b 229 336 306 153 229 231 b 403 521 229 433 297 521 b 569 438 472 521 532 488 z "},"Ģ":{"ha":1049,"x_min":0,"x_max":0,"o":"m 553 819 b 789 719 649 819 731 778 l 910 847 b 554 986 822 932 699 986 b 42 486 251 986 42 765 b 557 -14 42 207 254 -14 b 965 172 735 -14 879 63 l 965 604 l 528 604 l 528 438 l 778 438 l 778 228 b 561 153 722 183 650 153 b 229 486 374 153 229 297 b 553 819 229 671 368 819 z m 475 -83 l 378 -306 l 503 -306 l 669 -83 z "},"ģ":{"ha":854,"x_min":0,"x_max":0,"o":"m 493 778 l 590 1000 l 465 1000 l 299 778 z m 750 674 l 576 674 l 576 619 b 379 688 524 663 456 688 b 49 336 196 688 49 535 b 133 100 49 244 81 161 b 389 -14 193 31 289 -14 b 569 47 457 -14 515 6 l 569 25 b 528 -133 569 -61 556 -103 b 390 -187 497 -169 449 -187 b 181 -90 279 -187 217 -129 l 67 -208 b 390 -347 133 -286 258 -347 b 689 -212 519 -347 628 -297 b 750 38 729 -156 750 -83 z m 569 236 b 407 153 535 186 475 153 b 229 336 306 153 229 231 b 403 521 229 433 297 521 b 569 438 472 521 532 488 z "},"Ĥ":{"ha":1083,"x_min":0,"x_max":0,"o":"m 785 0 l 972 0 l 972 972 l 785 972 l 785 604 l 299 604 l 299 972 l 111 972 l 111 0 l 299 0 l 299 438 l 785 438 z m 444 1278 l 306 1056 l 431 1056 l 542 1181 l 653 1056 l 778 1056 l 639 1278 z "},"ĥ":{"ha":861,"x_min":0,"x_max":0,"o":"m 113 1292 l -26 1069 l 99 1069 l 210 1194 l 321 1069 l 446 1069 l 307 1292 z m 285 438 b 449 521 310 472 372 521 b 550 483 490 521 526 507 b 590 357 575 458 590 424 l 590 0 l 771 0 l 771 343 b 701 579 771 458 746 526 b 468 688 646 646 561 688 b 285 625 399 688 335 664 l 285 986 l 104 986 l 104 0 l 285 0 z "},"Ħ":{"ha":1083,"x_min":0,"x_max":0,"o":"m 1111 890 l 972 890 l 972 972 l 785 972 l 785 890 l 299 890 l 299 972 l 111 972 l 111 890 l -28 890 l -28 724 l 111 724 l 111 0 l 299 0 l 299 438 l 785 438 l 785 0 l 972 0 l 972 724 l 1111 724 z m 299 604 l 299 724 l 785 724 l 785 604 z "},"ħ":{"ha":861,"x_min":0,"x_max":0,"o":"m 285 438 b 449 521 310 472 372 521 b 550 483 490 521 526 507 b 590 357 575 458 590 424 l 590 0 l 771 0 l 771 343 b 701 579 771 458 746 526 b 468 688 646 646 561 688 b 285 625 399 688 335 664 l 285 750 l 465 750 l 465 889 l 285 889 l 285 986 l 104 986 l 104 889 l -7 889 l -7 750 l 104 750 l 104 0 l 285 0 z "},"Ĩ":{"ha":410,"x_min":0,"x_max":0,"o":"m 111 0 l 299 0 l 299 972 l 111 972 z m 358 1278 b 303 1208 354 1239 336 1208 b 96 1278 243 1208 179 1278 b -58 1092 -4 1278 -58 1192 l 53 1069 b 108 1139 57 1108 75 1139 b 315 1069 168 1139 232 1069 b 469 1256 415 1069 469 1156 z "},"Ī":{"ha":410,"x_min":0,"x_max":0,"o":"m 111 0 l 299 0 l 299 972 l 111 972 z m -17 1236 l -17 1097 l 428 1097 l 428 1236 z "},"ī":{"ha":389,"x_min":0,"x_max":0,"o":"m 285 674 l 104 674 l 104 0 l 285 0 z m -28 958 l -28 819 l 417 819 l 417 958 z "},"Į":{"ha":410,"x_min":0,"x_max":0,"o":"m 299 972 l 111 972 l 111 0 l 138 0 b 96 -139 121 -25 96 -72 b 283 -306 96 -232 168 -306 b 374 -292 329 -306 363 -297 l 353 -140 b 318 -146 349 -142 336 -146 b 263 -87 285 -146 263 -121 b 299 0 263 -57 283 -22 z "},"į":{"ha":389,"x_min":0,"x_max":0,"o":"m 285 674 l 104 674 l 104 -28 b 82 -139 93 -57 82 -97 b 269 -306 82 -232 154 -306 b 360 -292 315 -306 349 -297 l 339 -140 b 304 -146 335 -142 322 -146 b 249 -87 271 -146 249 -121 b 285 0 249 -57 269 -22 z m 76 913 b 194 797 76 847 129 797 b 313 913 260 797 313 847 b 194 1028 313 978 260 1028 b 76 913 129 1028 76 978 z "},"İ":{"ha":410,"x_min":0,"x_max":0,"o":"m 111 0 l 299 0 l 299 972 l 111 972 z m 88 1190 b 206 1075 88 1125 140 1075 b 324 1190 271 1075 324 1125 b 206 1306 324 1256 271 1306 b 88 1190 140 1306 88 1256 z "},"Ĵ":{"ha":694,"x_min":0,"x_max":0,"o":"m 385 1278 l 246 1056 l 371 1056 l 482 1181 l 593 1056 l 718 1056 l 579 1278 z m 590 972 l 403 972 l 403 285 b 381 192 403 233 394 210 b 296 153 361 167 331 153 b 182 238 232 153 197 199 l 21 157 b 294 -14 65 53 168 -14 b 560 133 407 -14 510 40 b 590 306 582 175 590 228 z "},"ĵ":{"ha":444,"x_min":0,"x_max":0,"o":"m 139 1000 l 0 778 l 125 778 l 236 903 l 347 778 l 472 778 l 333 1000 z m -28 -337 b 63 -347 -8 -342 26 -347 b 292 -247 179 -347 250 -306 b 340 -35 326 -197 340 -136 l 340 674 l 160 674 l 160 -35 b 133 -150 160 -101 151 -131 b 47 -181 114 -171 85 -181 b 0 -174 38 -181 13 -178 z "},"Ķ":{"ha":965,"x_min":0,"x_max":0,"o":"m 725 0 l 965 0 l 486 528 l 914 972 l 667 972 l 299 583 l 299 972 l 111 972 l 111 0 l 299 0 l 299 478 z m 406 -83 l 308 -306 l 433 -306 l 600 -83 z "},"ķ":{"ha":826,"x_min":0,"x_max":0,"o":"m 771 674 l 517 674 l 285 456 l 285 972 l 104 972 l 104 0 l 285 0 l 285 292 l 569 0 l 813 0 l 442 371 z m 322 -83 l 225 -306 l 350 -306 l 517 -83 z "},"Ĺ":{"ha":743,"x_min":0,"x_max":0,"o":"m 236 1278 l 139 1056 l 264 1056 l 431 1278 z m 111 0 l 708 0 l 708 167 l 299 167 l 299 972 l 111 972 z "},"ĺ":{"ha":389,"x_min":0,"x_max":0,"o":"m 229 1292 l 132 1069 l 257 1069 l 424 1292 z m 285 986 l 104 986 l 104 0 l 285 0 z "},"Ļ":{"ha":743,"x_min":0,"x_max":0,"o":"m 111 0 l 708 0 l 708 167 l 299 167 l 299 972 l 111 972 z m 322 -83 l 225 -306 l 350 -306 l 517 -83 z "},"ļ":{"ha":389,"x_min":0,"x_max":0,"o":"m 285 986 l 104 986 l 104 0 l 285 0 z m 104 -83 l 7 -306 l 132 -306 l 299 -83 z "},"Ľ":{"ha":743,"x_min":0,"x_max":0,"o":"m 451 972 l 354 750 l 479 750 l 646 972 z m 111 0 l 708 0 l 708 167 l 299 167 l 299 972 l 111 972 z "},"ľ":{"ha":486,"x_min":0,"x_max":0,"o":"m 438 972 l 340 750 l 465 750 l 632 972 z m 285 986 l 104 986 l 104 0 l 285 0 z "},"Ń":{"ha":1083,"x_min":0,"x_max":0,"o":"m 111 0 l 299 0 l 299 633 l 840 0 l 972 0 l 972 972 l 785 972 l 785 339 l 243 972 l 111 972 z m 563 1278 l 465 1056 l 590 1056 l 757 1278 z "},"ń":{"ha":861,"x_min":0,"x_max":0,"o":"m 465 1000 l 368 778 l 493 778 l 660 1000 z m 285 0 l 285 438 b 449 521 310 472 372 521 b 550 483 490 521 526 507 b 590 357 575 458 590 424 l 590 0 l 771 0 l 771 343 b 701 579 771 458 746 526 b 468 688 646 646 561 688 b 278 619 393 688 329 661 l 278 674 l 104 674 l 104 0 z "},"Ņ":{"ha":1083,"x_min":0,"x_max":0,"o":"m 111 0 l 299 0 l 299 633 l 840 0 l 972 0 l 972 972 l 785 972 l 785 339 l 243 972 l 111 972 z m 461 -83 l 364 -306 l 489 -306 l 656 -83 z "},"ņ":{"ha":861,"x_min":0,"x_max":0,"o":"m 336 -83 l 239 -306 l 364 -306 l 531 -83 z m 285 0 l 285 438 b 449 521 310 472 372 521 b 550 483 490 521 526 507 b 590 357 575 458 590 424 l 590 0 l 771 0 l 771 343 b 701 579 771 458 746 526 b 468 688 646 646 561 688 b 278 619 393 688 329 661 l 278 674 l 104 674 l 104 0 z "},"Ň":{"ha":1083,"x_min":0,"x_max":0,"o":"m 111 0 l 299 0 l 299 633 l 840 0 l 972 0 l 972 972 l 785 972 l 785 339 l 243 972 l 111 972 z m 639 1056 l 778 1278 l 653 1278 l 542 1153 l 431 1278 l 306 1278 l 444 1056 z "},"ň":{"ha":861,"x_min":0,"x_max":0,"o":"m 542 778 l 681 1000 l 556 1000 l 444 875 l 333 1000 l 208 1000 l 347 778 z m 285 0 l 285 438 b 449 521 310 472 372 521 b 550 483 490 521 526 507 b 590 357 575 458 590 424 l 590 0 l 771 0 l 771 343 b 701 579 771 458 746 526 b 468 688 646 646 561 688 b 278 619 393 688 329 661 l 278 674 l 104 674 l 104 0 z "},"Ō":{"ha":1097,"x_min":0,"x_max":0,"o":"m 229 486 b 549 819 229 669 365 819 b 868 486 732 819 868 669 b 549 153 868 303 732 153 b 229 486 365 153 229 303 z m 42 486 b 549 -14 42 210 249 -14 b 1056 486 849 -14 1056 210 b 549 986 1056 763 849 986 b 42 486 249 986 42 763 z m 326 1236 l 326 1097 l 771 1097 l 771 1236 z "},"ō":{"ha":814,"x_min":0,"x_max":0,"o":"m 49 336 b 407 -14 49 142 203 -14 b 765 336 611 -14 765 142 b 407 688 765 531 611 688 b 49 336 203 688 49 531 z m 229 336 b 407 521 229 438 301 521 b 585 336 513 521 585 438 b 407 153 585 235 513 153 b 229 336 301 153 229 235 z m 185 958 l 185 819 l 629 819 l 629 958 z "},"Ő":{"ha":1097,"x_min":0,"x_max":0,"o":"m 229 486 b 549 819 229 669 365 819 b 868 486 732 819 868 669 b 549 153 868 303 732 153 b 229 486 365 153 229 303 z m 42 486 b 549 -14 42 210 249 -14 b 1056 486 849 -14 1056 210 b 549 986 1056 763 849 986 b 42 486 249 986 42 763 z m 431 1285 l 333 1063 l 458 1063 l 625 1285 z m 736 1285 l 639 1063 l 764 1063 l 931 1285 z "},"ő":{"ha":814,"x_min":0,"x_max":0,"o":"m 49 336 b 407 -14 49 142 203 -14 b 765 336 611 -14 765 142 b 407 688 765 531 611 688 b 49 336 203 688 49 531 z m 229 336 b 407 521 229 438 301 521 b 585 336 513 521 585 438 b 407 153 585 235 513 153 b 229 336 301 153 229 235 z m 289 1000 l 192 778 l 317 778 l 483 1000 z m 594 1000 l 497 778 l 622 778 l 789 1000 z "},"Ŕ":{"ha":931,"x_min":0,"x_max":0,"o":"m 367 431 l 713 0 l 944 0 l 581 446 b 678 503 619 458 651 478 b 764 701 731 553 764 624 b 678 900 764 779 731 850 b 465 972 629 944 565 972 l 111 972 l 111 0 l 299 0 l 299 431 z m 299 597 l 299 806 l 454 806 b 549 775 508 806 532 793 b 576 700 565 757 576 729 b 549 626 576 672 565 644 b 454 597 532 608 508 597 z m 403 1278 l 306 1056 l 431 1056 l 597 1278 z "},"ŕ":{"ha":569,"x_min":0,"x_max":0,"o":"m 361 1000 l 264 778 l 389 778 l 556 1000 z m 535 682 b 474 688 515 685 500 688 b 278 606 392 688 318 656 l 278 674 l 104 674 l 104 0 l 285 0 l 285 424 b 449 521 307 464 369 521 b 514 514 475 521 501 518 z "},"Ŗ":{"ha":931,"x_min":0,"x_max":0,"o":"m 367 431 l 713 0 l 944 0 l 581 446 b 678 503 619 458 651 478 b 764 701 731 553 764 624 b 678 900 764 779 731 850 b 465 972 629 944 565 972 l 111 972 l 111 0 l 299 0 l 299 431 z m 299 597 l 299 806 l 454 806 b 549 775 508 806 532 793 b 576 700 565 757 576 729 b 549 626 576 672 565 644 b 454 597 532 608 508 597 z m 392 -83 l 294 -306 l 419 -306 l 586 -83 z "},"ŗ":{"ha":569,"x_min":0,"x_max":0,"o":"m 104 -83 l 7 -306 l 132 -306 l 299 -83 z m 535 682 b 474 688 515 685 500 688 b 278 606 392 688 318 656 l 278 674 l 104 674 l 104 0 l 285 0 l 285 424 b 449 521 307 464 369 521 b 514 514 475 521 501 518 z "},"Ř":{"ha":931,"x_min":0,"x_max":0,"o":"m 367 431 l 713 0 l 944 0 l 581 446 b 678 503 619 458 651 478 b 764 701 731 553 764 624 b 678 900 764 779 731 850 b 465 972 629 944 565 972 l 111 972 l 111 0 l 299 0 l 299 431 z m 299 597 l 299 806 l 454 806 b 549 775 508 806 532 793 b 576 700 565 757 576 729 b 549 626 576 672 565 644 b 454 597 532 608 508 597 z m 521 1054 l 660 1276 l 535 1276 l 424 1151 l 313 1276 l 188 1276 l 326 1054 z "},"ř":{"ha":569,"x_min":0,"x_max":0,"o":"m 438 778 l 576 1000 l 451 1000 l 340 875 l 229 1000 l 104 1000 l 243 778 z m 535 682 b 474 688 515 685 500 688 b 278 606 392 688 318 656 l 278 674 l 104 674 l 104 0 l 285 0 l 285 424 b 449 521 307 464 369 521 b 514 514 475 521 501 518 z "},"Ś":{"ha":743,"x_min":0,"x_max":0,"o":"m 406 1278 l 308 1056 l 433 1056 l 600 1278 z m 14 132 b 365 -14 114 40 235 -14 b 694 278 540 -14 694 106 b 246 714 694 606 246 557 b 396 819 246 789 325 819 b 564 756 460 819 525 792 l 661 894 b 379 986 569 963 478 986 b 58 713 218 986 58 886 b 196 492 58 603 119 536 b 507 275 326 415 507 400 b 365 153 507 204 449 153 b 136 260 276 153 192 199 z "},"ś":{"ha":639,"x_min":0,"x_max":0,"o":"m 38 76 b 308 -14 117 18 215 -14 b 576 194 450 -14 576 65 b 250 481 576 428 250 393 b 342 535 250 515 292 535 b 471 489 390 535 436 514 l 556 619 b 328 688 511 654 415 688 b 69 478 194 688 69 607 b 396 196 69 261 396 297 b 310 139 396 163 358 139 b 125 206 242 139 171 164 z m 326 1000 l 229 778 l 354 778 l 521 1000 z "},"Ŝ":{"ha":743,"x_min":0,"x_max":0,"o":"m 278 1278 l 139 1056 l 264 1056 l 375 1181 l 486 1056 l 611 1056 l 472 1278 z m 14 132 b 365 -14 114 40 235 -14 b 694 278 540 -14 694 106 b 246 714 694 606 246 557 b 396 819 246 789 325 819 b 564 756 460 819 525 792 l 661 894 b 379 986 569 963 478 986 b 58 713 218 986 58 886 b 196 492 58 603 119 536 b 507 275 326 415 507 400 b 365 153 507 204 449 153 b 136 260 276 153 192 199 z "},"ŝ":{"ha":639,"x_min":0,"x_max":0,"o":"m 38 76 b 308 -14 117 18 215 -14 b 576 194 450 -14 576 65 b 250 481 576 428 250 393 b 342 535 250 515 292 535 b 471 489 390 535 436 514 l 556 619 b 328 688 511 654 415 688 b 69 478 194 688 69 607 b 396 196 69 261 396 297 b 310 139 396 163 358 139 b 125 206 242 139 171 164 z m 224 1000 l 85 778 l 210 778 l 321 903 l 432 778 l 557 778 l 418 1000 z "},"Ş":{"ha":743,"x_min":0,"x_max":0,"o":"m 14 132 b 297 -8 96 56 193 6 l 215 -208 l 396 -208 l 432 -7 b 694 278 578 18 694 128 b 246 714 694 606 246 557 b 396 819 246 789 325 819 b 564 756 460 819 525 792 l 661 894 b 379 986 569 963 478 986 b 58 713 218 986 58 886 b 196 492 58 603 119 536 b 507 275 326 415 507 400 b 365 153 507 204 449 153 b 136 260 276 153 192 199 z "},"ş":{"ha":639,"x_min":0,"x_max":0,"o":"m 181 -208 l 361 -208 l 400 -1 b 576 194 500 24 576 94 b 250 481 576 428 250 393 b 342 535 250 515 292 535 b 471 489 390 535 436 514 l 556 619 b 328 688 511 654 415 688 b 69 478 194 688 69 607 b 396 196 69 261 396 297 b 310 139 396 163 358 139 b 125 206 242 139 171 164 l 38 76 b 260 -11 103 28 182 -1 z "},"Ţ":{"ha":771,"x_min":0,"x_max":0,"o":"m 35 972 l 35 806 l 292 806 l 292 0 l 479 0 l 479 806 l 736 806 l 736 972 z m 292 -83 l 194 -306 l 319 -306 l 486 -83 z "},"ţ":{"ha":688,"x_min":0,"x_max":0,"o":"m 361 -83 l 264 -306 l 389 -306 l 556 -83 z m 583 153 b 510 146 571 150 536 146 b 418 179 465 146 436 158 b 396 264 403 197 396 222 l 396 521 l 618 521 l 618 674 l 396 674 l 396 861 l 215 861 l 215 674 l 28 674 l 28 521 l 215 521 l 215 285 b 265 83 215 189 231 129 b 499 -14 311 22 390 -14 b 611 0 533 -14 588 -8 z "},"Ť":{"ha":771,"x_min":0,"x_max":0,"o":"m 35 972 l 35 806 l 292 806 l 292 0 l 479 0 l 479 806 l 736 806 l 736 972 z m 482 1056 l 621 1278 l 496 1278 l 385 1153 l 274 1278 l 149 1278 l 288 1056 z "},"ť":{"ha":688,"x_min":0,"x_max":0,"o":"m 549 972 l 451 750 l 576 750 l 743 972 z m 583 153 b 510 146 571 150 536 146 b 418 179 465 146 436 158 b 396 264 403 197 396 222 l 396 521 l 618 521 l 618 674 l 396 674 l 396 861 l 215 861 l 215 674 l 28 674 l 28 521 l 215 521 l 215 285 b 265 83 215 189 231 129 b 499 -14 311 22 390 -14 b 611 0 533 -14 588 -8 z "},"Ū":{"ha":1042,"x_min":0,"x_max":0,"o":"m 521 -14 b 813 86 631 -14 738 19 b 938 410 893 158 938 261 l 938 972 l 750 972 l 750 396 b 686 215 750 307 726 253 b 521 153 644 175 586 153 b 356 215 456 153 397 175 b 292 396 315 253 292 307 l 292 972 l 104 972 l 104 410 b 229 86 104 261 149 158 b 521 -14 304 19 411 -14 z m 299 1236 l 299 1097 l 743 1097 l 743 1236 z "},"ū":{"ha":847,"x_min":0,"x_max":0,"o":"m 201 958 l 201 819 l 646 819 l 646 958 z m 563 674 l 563 236 b 406 153 538 204 482 153 b 304 194 371 153 332 164 b 271 310 283 218 271 249 l 271 674 l 90 674 l 90 317 b 158 94 90 217 115 147 b 388 -14 211 29 294 -14 b 569 54 453 -14 517 7 l 569 0 l 743 0 l 743 674 z "},"Ŭ":{"ha":1042,"x_min":0,"x_max":0,"o":"m 521 -14 b 813 86 631 -14 738 19 b 938 410 893 158 938 261 l 938 972 l 750 972 l 750 396 b 686 215 750 307 726 253 b 521 153 644 175 586 153 b 356 215 456 153 397 175 b 292 396 315 253 292 307 l 292 972 l 104 972 l 104 410 b 229 86 104 261 149 158 b 521 -14 304 19 411 -14 z m 583 1278 b 521 1215 583 1243 556 1215 b 458 1278 486 1215 458 1243 l 313 1278 b 521 1069 313 1163 406 1069 b 729 1278 636 1069 729 1163 z "},"ŭ":{"ha":847,"x_min":0,"x_max":0,"o":"m 486 1000 b 424 938 486 965 458 938 b 361 1000 389 938 361 965 l 215 1000 b 424 792 215 885 308 792 b 632 1000 539 792 632 885 z m 563 674 l 563 236 b 406 153 538 204 482 153 b 304 194 371 153 332 164 b 271 310 283 218 271 249 l 271 674 l 90 674 l 90 317 b 158 94 90 217 115 147 b 388 -14 211 29 294 -14 b 569 54 453 -14 517 7 l 569 0 l 743 0 l 743 674 z "},"Ů":{"ha":1042,"x_min":0,"x_max":0,"o":"m 521 -14 b 813 86 631 -14 738 19 b 938 410 893 158 938 261 l 938 972 l 750 972 l 750 396 b 686 215 750 307 726 253 b 521 153 644 175 586 153 b 356 215 456 153 397 175 b 292 396 315 253 292 307 l 292 972 l 104 972 l 104 410 b 229 86 104 261 149 158 b 521 -14 304 19 411 -14 z m 368 1181 b 521 1028 368 1096 436 1028 b 674 1181 606 1028 674 1096 b 521 1333 674 1265 606 1333 b 368 1181 436 1333 368 1265 z m 479 1181 b 521 1222 479 1204 497 1222 b 563 1181 544 1222 563 1204 b 521 1139 563 1157 544 1139 b 479 1181 497 1139 479 1157 z "},"ů":{"ha":847,"x_min":0,"x_max":0,"o":"m 271 903 b 424 750 271 818 339 750 b 576 903 508 750 576 818 b 424 1056 576 988 508 1056 b 271 903 339 1056 271 988 z m 382 903 b 424 944 382 926 400 944 b 465 903 447 944 465 926 b 424 861 465 879 447 861 b 382 903 400 861 382 879 z m 563 674 l 563 236 b 406 153 538 204 482 153 b 304 194 371 153 332 164 b 271 310 283 218 271 249 l 271 674 l 90 674 l 90 317 b 158 94 90 217 115 147 b 388 -14 211 29 294 -14 b 569 54 453 -14 517 7 l 569 0 l 743 0 l 743 674 z "},"Ű":{"ha":1042,"x_min":0,"x_max":0,"o":"m 521 -14 b 813 86 631 -14 738 19 b 938 410 893 158 938 261 l 938 972 l 750 972 l 750 396 b 686 215 750 307 726 253 b 521 153 644 175 586 153 b 356 215 456 153 397 175 b 292 396 315 253 292 307 l 292 972 l 104 972 l 104 410 b 229 86 104 261 149 158 b 521 -14 304 19 411 -14 z m 403 1299 l 306 1076 l 431 1076 l 597 1299 z m 708 1299 l 611 1076 l 736 1076 l 903 1299 z "},"ű":{"ha":847,"x_min":0,"x_max":0,"o":"m 306 1000 l 208 778 l 333 778 l 500 1000 z m 611 1000 l 514 778 l 639 778 l 806 1000 z m 563 674 l 563 236 b 406 153 538 204 482 153 b 304 194 371 153 332 164 b 271 310 283 218 271 249 l 271 674 l 90 674 l 90 317 b 158 94 90 217 115 147 b 388 -14 211 29 294 -14 b 569 54 453 -14 517 7 l 569 0 l 743 0 l 743 674 z "},"Ų":{"ha":1042,"x_min":0,"x_max":0,"o":"m 813 86 b 938 410 893 158 938 261 l 938 972 l 750 972 l 750 396 b 686 215 750 307 726 253 b 521 153 644 175 586 153 b 356 215 456 153 397 175 b 292 396 315 253 292 307 l 292 972 l 104 972 l 104 410 b 229 86 104 261 149 158 b 507 -14 301 22 403 -11 b 474 -139 492 -40 474 -83 b 661 -306 474 -232 546 -306 b 751 -292 707 -306 740 -297 l 731 -140 b 696 -146 726 -142 714 -146 b 640 -87 663 -146 640 -121 b 685 13 640 -50 671 -4 b 813 86 733 29 776 54 z "},"ų":{"ha":847,"x_min":0,"x_max":0,"o":"m 563 674 l 563 236 b 406 153 538 204 482 153 b 304 194 371 153 332 164 b 271 310 283 218 271 249 l 271 674 l 90 674 l 90 317 b 158 94 90 217 115 147 b 388 -14 211 29 294 -14 b 569 54 453 -14 517 7 l 569 -10 b 540 -139 557 -40 540 -82 b 728 -306 540 -232 613 -306 b 818 -292 774 -306 807 -297 l 797 -140 b 763 -146 793 -142 781 -146 b 707 -87 729 -146 707 -121 b 743 0 707 -57 728 -22 l 743 674 z "},"Ŵ":{"ha":1368,"x_min":0,"x_max":0,"o":"m 336 0 l 468 0 l 683 615 l 900 0 l 1032 0 l 1354 972 l 1165 972 l 964 365 l 750 972 l 618 972 l 404 365 l 203 972 l 14 972 z m 586 1278 l 447 1056 l 572 1056 l 683 1181 l 794 1056 l 919 1056 l 781 1278 z "},"ŵ":{"ha":1183,"x_min":0,"x_max":0,"o":"m 592 392 l 761 0 l 886 0 l 1169 674 l 988 674 l 822 281 l 654 674 l 529 674 l 360 281 l 196 674 l 14 674 l 297 0 l 422 0 z m 494 1000 l 356 778 l 481 778 l 592 903 l 703 778 l 828 778 l 689 1000 z "},"Ŷ":{"ha":868,"x_min":0,"x_max":0,"o":"m 861 972 l 647 972 l 435 631 l 221 972 l 7 972 l 340 440 l 340 0 l 528 0 l 528 440 z m 336 1278 l 197 1056 l 322 1056 l 433 1181 l 544 1056 l 669 1056 l 531 1278 z "},"ŷ":{"ha":796,"x_min":0,"x_max":0,"o":"m 318 -333 l 782 674 l 592 674 l 410 269 l 213 674 l 14 674 l 315 68 l 129 -333 z m 300 1000 l 161 778 l 286 778 l 397 903 l 508 778 l 633 778 l 494 1000 z "},"Ź":{"ha":854,"x_min":0,"x_max":0,"o":"m 56 0 l 806 0 l 806 167 l 304 167 l 778 861 l 778 972 l 97 972 l 97 806 l 528 806 l 56 111 z m 461 1278 l 364 1056 l 489 1056 l 656 1278 z "},"ź":{"ha":736,"x_min":0,"x_max":0,"o":"m 639 674 l 97 674 l 97 521 l 392 521 l 69 111 l 69 0 l 667 0 l 667 153 l 313 153 l 639 563 z m 404 1000 l 307 778 l 432 778 l 599 1000 z "},"Ż":{"ha":854,"x_min":0,"x_max":0,"o":"m 56 0 l 806 0 l 806 167 l 304 167 l 778 861 l 778 972 l 97 972 l 97 806 l 528 806 l 56 111 z m 322 1190 b 440 1075 322 1125 375 1075 b 558 1190 506 1075 558 1125 b 440 1306 558 1256 506 1306 b 322 1190 375 1306 322 1256 z "},"ż":{"ha":736,"x_min":0,"x_max":0,"o":"m 639 674 l 97 674 l 97 521 l 392 521 l 69 111 l 69 0 l 667 0 l 667 153 l 313 153 l 639 563 z m 264 913 b 382 797 264 847 317 797 b 500 913 447 797 500 847 b 382 1028 500 978 447 1028 b 264 913 317 1028 264 978 z "},"Ș":{"ha":743,"x_min":0,"x_max":0,"o":"m 21 139 b 358 -14 107 44 222 -14 b 694 281 544 -14 694 108 b 450 575 694 451 567 524 b 250 717 351 618 250 639 b 379 819 250 782 311 819 b 526 756 438 819 486 797 l 642 889 b 371 986 563 951 482 986 b 63 714 201 986 63 878 b 268 465 63 572 163 513 b 507 281 383 414 507 382 b 360 153 507 207 444 153 b 146 264 267 153 194 206 z m 278 -83 l 181 -306 l 306 -306 l 472 -83 z "},"ș":{"ha":639,"x_min":0,"x_max":0,"o":"m 38 76 b 308 -14 117 18 215 -14 b 576 194 450 -14 576 65 b 250 481 576 428 250 393 b 342 535 250 515 292 535 b 471 489 390 535 436 514 l 556 619 b 328 688 511 654 415 688 b 69 478 194 688 69 607 b 396 196 69 261 396 297 b 310 139 396 163 358 139 b 125 206 242 139 171 164 z m 222 -83 l 125 -306 l 250 -306 l 417 -83 z "},"Ẁ":{"ha":1368,"x_min":0,"x_max":0,"o":"m 336 0 l 468 0 l 683 615 l 900 0 l 1032 0 l 1354 972 l 1165 972 l 964 365 l 750 972 l 618 972 l 404 365 l 203 972 l 14 972 z m 453 1278 l 619 1056 l 744 1056 l 647 1278 z "},"ẁ":{"ha":1183,"x_min":0,"x_max":0,"o":"m 592 392 l 761 0 l 886 0 l 1169 674 l 988 674 l 822 281 l 654 674 l 529 674 l 360 281 l 196 674 l 14 674 l 297 0 l 422 0 z m 363 1000 l 529 778 l 654 778 l 557 1000 z "},"ĕ":{"ha":743,"x_min":0,"x_max":0,"o":"m 575 210 b 406 132 543 175 482 132 b 224 292 310 132 233 197 l 690 292 b 694 343 693 307 694 325 b 376 688 694 531 563 688 b 49 336 176 688 49 524 b 401 -14 49 125 200 -14 b 678 107 506 -14 613 29 z m 232 424 b 376 542 240 485 301 542 b 510 424 450 542 504 483 z m 447 1000 b 385 938 447 965 419 938 b 322 1000 350 938 322 965 l 176 1000 b 385 792 176 885 269 792 b 593 1000 500 792 593 885 z "},"Ĕ":{"ha":764,"x_min":0,"x_max":0,"o":"m 694 806 l 694 972 l 111 972 l 111 0 l 708 0 l 708 167 l 299 167 l 299 438 l 597 438 l 597 604 l 299 604 l 299 806 z m 467 1278 b 404 1215 467 1243 439 1215 b 342 1278 369 1215 342 1243 l 196 1278 b 404 1069 196 1163 289 1069 b 613 1278 519 1069 613 1163 z "},"ĩ":{"ha":389,"x_min":0,"x_max":0,"o":"m 285 674 l 104 674 l 104 0 l 285 0 z m 347 1000 b 292 931 343 961 325 931 b 85 1000 232 931 168 1000 b -69 814 -15 1000 -69 914 l 42 792 b 97 861 46 831 64 861 b 304 792 157 861 221 792 b 458 978 404 792 458 878 z "},"Ŀ":{"ha":743,"x_min":0,"x_max":0,"o":"m 111 0 l 708 0 l 708 167 l 299 167 l 299 972 l 111 972 z m 408 486 b 526 371 408 421 461 371 b 644 486 592 371 644 421 b 526 601 644 551 592 601 b 408 486 461 601 408 551 z "},"ŀ":{"ha":472,"x_min":0,"x_max":0,"o":"m 285 986 l 104 986 l 104 0 l 285 0 z m 354 486 b 472 371 354 421 407 371 b 590 486 538 371 590 421 b 472 601 590 551 538 601 b 354 486 407 601 354 551 z "},"Ŏ":{"ha":1097,"x_min":0,"x_max":0,"o":"m 229 486 b 549 819 229 669 365 819 b 868 486 732 819 868 669 b 549 153 868 303 732 153 b 229 486 365 153 229 303 z m 42 486 b 549 -14 42 210 249 -14 b 1056 486 849 -14 1056 210 b 549 986 1056 763 849 986 b 42 486 249 986 42 763 z m 611 1278 b 549 1215 611 1243 583 1215 b 486 1278 514 1215 486 1243 l 340 1278 b 549 1069 340 1163 433 1069 b 757 1278 664 1069 757 1163 z "},"ŏ":{"ha":814,"x_min":0,"x_max":0,"o":"m 49 336 b 407 -14 49 142 203 -14 b 765 336 611 -14 765 142 b 407 688 765 531 611 688 b 49 336 203 688 49 531 z m 229 336 b 407 521 229 438 301 521 b 585 336 513 521 585 438 b 407 153 585 235 513 153 b 229 336 301 153 229 235 z m 469 1000 b 407 938 469 965 442 938 b 344 1000 372 938 344 965 l 199 1000 b 407 792 199 885 292 792 b 615 1000 522 792 615 885 z "},"Ŧ":{"ha":771,"x_min":0,"x_max":0,"o":"m 674 438 l 674 604 l 479 604 l 479 806 l 736 806 l 736 972 l 35 972 l 35 806 l 292 806 l 292 604 l 97 604 l 97 438 l 292 438 l 292 0 l 479 0 l 479 438 z "},"ŧ":{"ha":688,"x_min":0,"x_max":0,"o":"m 583 153 b 510 146 571 150 536 146 b 418 179 465 146 436 158 b 396 264 403 197 396 222 l 396 271 l 618 271 l 618 424 l 396 424 l 396 521 l 618 521 l 618 674 l 396 674 l 396 861 l 215 861 l 215 674 l 28 674 l 28 521 l 215 521 l 215 424 l 28 424 l 28 271 l 215 271 b 265 83 217 183 232 126 b 499 -14 311 22 390 -14 b 611 0 533 -14 588 -8 z "},"Ũ":{"ha":1042,"x_min":0,"x_max":0,"o":"m 521 -14 b 813 86 631 -14 738 19 b 938 410 893 158 938 261 l 938 972 l 750 972 l 750 396 b 686 215 750 307 726 253 b 521 153 644 175 586 153 b 356 215 456 153 397 175 b 292 396 315 253 292 307 l 292 972 l 104 972 l 104 410 b 229 86 104 261 149 158 b 521 -14 304 19 411 -14 z m 674 1278 b 618 1208 669 1239 651 1208 b 411 1278 558 1208 494 1278 b 257 1092 311 1278 257 1192 l 368 1069 b 424 1139 372 1108 390 1139 b 631 1069 483 1139 547 1069 b 785 1256 731 1069 785 1156 z "},"ũ":{"ha":847,"x_min":0,"x_max":0,"o":"m 563 674 l 563 236 b 406 153 538 204 482 153 b 304 194 371 153 332 164 b 271 310 283 218 271 249 l 271 674 l 90 674 l 90 317 b 158 94 90 217 115 147 b 388 -14 211 29 294 -14 b 569 54 453 -14 517 7 l 569 0 l 743 0 l 743 674 z m 576 1000 b 521 931 572 961 554 931 b 314 1000 461 931 397 1000 b 160 814 214 1000 160 914 l 271 792 b 326 861 275 831 293 861 b 533 792 386 861 450 792 b 688 978 633 792 688 878 z "},"Ĭ":{"ha":410,"x_min":0,"x_max":0,"o":"m 111 0 l 299 0 l 299 972 l 111 972 z m 268 1278 b 206 1215 268 1243 240 1215 b 143 1278 171 1215 143 1243 l -3 1278 b 206 1069 -3 1163 90 1069 b 414 1278 321 1069 414 1163 z "},"ĭ":{"ha":389,"x_min":0,"x_max":0,"o":"m 285 674 l 104 674 l 104 0 l 285 0 z m 257 1000 b 194 938 257 965 229 938 b 132 1000 160 938 132 965 l -14 1000 b 194 792 -14 885 79 792 b 403 1000 310 792 403 885 z "},"Ĳ":{"ha":1104,"x_min":0,"x_max":0,"o":"m 111 0 l 299 0 l 299 972 l 111 972 z m 1000 972 l 813 972 l 813 285 b 790 192 813 233 804 210 b 706 153 771 167 740 153 b 592 238 642 153 607 199 l 431 157 b 704 -14 475 53 578 -14 b 969 133 817 -14 919 40 b 1000 306 992 175 1000 228 z "},"ĳ":{"ha":833,"x_min":0,"x_max":0,"o":"m 285 674 l 104 674 l 104 0 l 285 0 z m 76 913 b 194 797 76 847 129 797 b 313 913 260 797 313 847 b 194 1028 313 978 260 1028 b 76 913 129 1028 76 978 z m 521 913 b 639 797 521 847 574 797 b 757 913 704 797 757 847 b 639 1028 757 978 704 1028 b 521 913 574 1028 521 978 z m 361 -337 b 451 -347 381 -342 415 -347 b 681 -247 568 -347 639 -306 b 729 -35 715 -197 729 -136 l 729 674 l 549 674 l 549 -35 b 522 -150 549 -101 540 -131 b 436 -181 503 -171 474 -181 b 389 -174 426 -181 401 -178 z "},"ĸ":{"ha":826,"x_min":0,"x_max":0,"o":"m 771 674 l 517 674 l 285 456 l 285 674 l 104 674 l 104 0 l 285 0 l 285 292 l 569 0 l 813 0 l 442 371 z "},"ŉ":{"ha":861,"x_min":0,"x_max":0,"o":"m 201 972 l 104 750 l 229 750 l 396 972 z m 285 0 l 285 438 b 449 521 310 472 372 521 b 550 483 490 521 526 507 b 590 357 575 458 590 424 l 590 0 l 771 0 l 771 343 b 701 579 771 458 746 526 b 468 688 646 646 561 688 b 278 619 393 688 329 661 l 278 674 l 104 674 l 104 0 z "},"Ŋ":{"ha":1083,"x_min":0,"x_max":0,"o":"m 111 0 l 299 0 l 299 633 l 785 65 l 785 -49 b 763 -142 785 -100 776 -124 b 678 -181 743 -167 713 -181 b 564 -96 614 -181 579 -135 l 403 -176 b 676 -347 447 -281 550 -347 b 942 -200 789 -347 892 -293 b 972 -28 964 -158 972 -106 l 972 972 l 785 972 l 785 339 l 243 972 l 111 972 z "},"ŋ":{"ha":861,"x_min":0,"x_max":0,"o":"m 285 0 l 285 438 b 449 521 310 472 372 521 b 550 483 490 521 526 507 b 590 357 575 458 590 424 l 590 -69 b 569 -151 590 -111 583 -135 b 478 -187 550 -175 515 -187 b 397 -168 443 -187 411 -175 l 326 -310 b 493 -347 368 -333 433 -347 b 711 -250 582 -347 661 -310 b 771 -35 750 -204 771 -143 l 771 343 b 701 579 771 458 746 526 b 468 688 646 646 561 688 b 278 619 393 688 329 661 l 278 674 l 104 674 l 104 0 z "},"ſ":{"ha":571,"x_min":0,"x_max":0,"o":"m 285 722 b 315 818 285 772 297 799 b 411 854 339 844 376 854 b 500 833 442 854 476 844 l 564 978 b 411 1014 525 999 463 1014 b 186 933 319 1014 240 985 b 104 701 133 883 104 811 l 104 0 l 285 0 z "},"Ə":{"ha":1003,"x_min":0,"x_max":0,"o":"m 758 385 b 494 153 743 267 639 153 b 240 385 353 153 257 272 z m 179 689 b 468 819 233 747 339 819 b 769 551 625 819 753 708 l 47 551 b 42 478 43 529 42 504 b 494 -12 42 211 224 -12 b 961 488 783 -12 961 221 b 467 986 961 786 751 986 b 65 814 317 986 165 921 z "},"Ƶ":{"ha":854,"x_min":0,"x_max":0,"o":"m 139 604 l 139 438 l 278 438 l 56 111 l 56 0 l 806 0 l 806 167 l 304 167 l 489 438 l 736 438 l 736 604 l 603 604 l 778 861 l 778 972 l 97 972 l 97 806 l 528 806 l 390 604 z "},"ƶ":{"ha":736,"x_min":0,"x_max":0,"o":"m 611 271 l 611 424 l 528 424 l 639 563 l 639 674 l 97 674 l 97 521 l 392 521 l 315 424 l 125 424 l 125 271 l 194 271 l 69 111 l 69 0 l 667 0 l 667 153 l 313 153 l 406 271 z "},"Ǻ":{"ha":965,"x_min":0,"x_max":0,"o":"m 329 1181 b 482 1028 329 1096 397 1028 b 635 1181 567 1028 635 1096 b 482 1333 635 1265 567 1333 b 329 1181 397 1333 329 1265 z m 440 1181 b 482 1222 440 1204 458 1222 b 524 1181 506 1222 524 1204 b 482 1139 524 1157 506 1139 b 440 1181 458 1139 440 1157 z m 517 1611 l 419 1389 l 544 1389 l 711 1611 z m 196 0 l 288 215 l 678 215 l 769 0 l 965 0 l 549 972 l 417 972 l 0 0 z m 482 669 l 606 382 l 358 382 z "},"ǻ":{"ha":854,"x_min":0,"x_max":0,"o":"m 299 903 b 451 750 299 818 367 750 b 604 903 536 750 604 818 b 451 1056 604 988 536 1056 b 299 903 367 1056 299 988 z m 410 903 b 451 944 410 926 428 944 b 493 903 475 944 493 926 b 451 861 493 879 475 861 b 410 903 428 861 410 879 z m 486 1333 l 389 1111 l 514 1111 l 681 1333 z m 569 236 b 407 153 535 186 475 153 b 229 336 306 153 229 231 b 403 521 229 433 297 521 b 569 438 472 521 532 488 z m 750 674 l 576 674 l 576 619 b 379 688 524 663 456 688 b 49 336 196 688 49 535 b 135 100 49 244 82 161 b 389 -14 194 31 289 -14 b 576 54 457 -14 521 7 l 576 0 l 750 0 z "},"Ǽ":{"ha":1333,"x_min":0,"x_max":0,"o":"m 701 1278 l 604 1056 l 729 1056 l 896 1278 z m 1264 806 l 1264 972 l 571 972 l -14 0 l 196 0 l 325 215 l 681 215 l 681 0 l 1278 0 l 1278 167 l 868 167 l 868 438 l 1181 438 l 1181 604 l 868 604 l 868 806 z m 425 382 l 681 807 l 681 382 z "},"ǽ":{"ha":1279,"x_min":0,"x_max":0,"o":"m 688 1000 l 590 778 l 715 778 l 882 1000 z m 1111 210 b 935 132 1079 175 1011 132 b 746 292 839 132 756 197 l 1226 292 b 1231 343 1229 307 1231 325 b 908 688 1231 533 1086 688 b 736 619 838 688 775 657 l 736 674 l 576 674 l 576 619 b 379 688 524 663 456 688 b 49 336 196 688 49 535 b 135 100 49 244 82 161 b 389 -14 194 31 289 -14 b 576 54 457 -14 521 7 l 576 0 l 736 0 l 736 54 b 938 -14 786 14 868 -14 b 1214 107 1042 -14 1149 29 z m 569 236 b 407 153 535 186 475 153 b 229 336 306 153 229 231 b 403 521 229 433 297 521 b 569 438 472 521 532 488 z m 754 424 b 903 542 769 496 833 542 b 1046 424 972 542 1036 490 z "},"Ǿ":{"ha":1097,"x_min":0,"x_max":0,"o":"m 583 1278 l 486 1056 l 611 1056 l 778 1278 z m 42 486 b 158 158 42 361 83 246 l 13 -14 l 239 -14 l 292 50 b 549 -14 365 10 451 -14 b 1056 486 849 -14 1056 210 b 939 813 1056 611 1013 725 l 1083 986 l 856 986 l 804 922 b 549 986 731 963 644 986 b 42 486 249 986 42 763 z m 868 486 b 549 153 868 303 732 153 b 407 186 497 153 449 165 l 817 669 b 868 486 849 617 868 553 z m 229 486 b 549 819 229 669 365 819 b 689 786 599 819 647 807 l 279 303 b 229 486 247 356 229 418 z "},"ǿ":{"ha":814,"x_min":0,"x_max":0,"o":"m 442 1000 l 344 778 l 469 778 l 636 1000 z m 607 688 l 575 649 b 407 688 525 674 468 688 b 49 336 203 688 49 531 b 121 122 49 256 75 181 l 8 -14 l 207 -14 l 239 25 b 407 -14 288 0 344 -14 b 765 336 611 -14 765 142 b 692 551 765 417 738 492 l 806 688 z m 585 336 b 407 153 585 235 513 153 b 363 157 392 153 376 154 l 572 407 b 585 336 581 385 585 361 z m 229 336 b 407 521 229 438 301 521 b 450 515 422 521 436 519 l 242 267 b 229 336 233 288 229 311 z "},"ə":{"ha":743,"x_min":0,"x_max":0,"o":"m 168 465 b 338 543 200 500 261 543 b 519 383 433 543 510 478 l 53 383 b 49 332 50 368 49 350 b 367 -12 49 144 181 -12 b 694 339 567 -12 694 151 b 342 689 694 550 543 689 b 65 568 238 689 131 646 z m 511 251 b 367 133 503 190 442 133 b 233 251 293 133 239 192 z "},"Ẃ":{"ha":1368,"x_min":0,"x_max":0,"o":"m 336 0 l 468 0 l 683 615 l 900 0 l 1032 0 l 1354 972 l 1165 972 l 964 365 l 750 972 l 618 972 l 404 365 l 203 972 l 14 972 z m 722 1278 l 625 1056 l 750 1056 l 917 1278 z "},"ẃ":{"ha":1183,"x_min":0,"x_max":0,"o":"m 592 392 l 761 0 l 886 0 l 1169 674 l 988 674 l 822 281 l 654 674 l 529 674 l 360 281 l 196 674 l 14 674 l 297 0 l 422 0 z m 626 1000 l 529 778 l 654 778 l 821 1000 z "},"ȷ":{"ha":444,"x_min":0,"x_max":0,"o":"m -28 -337 b 63 -347 -8 -342 26 -347 b 292 -247 179 -347 250 -306 b 340 -35 326 -197 340 -136 l 340 674 l 160 674 l 160 -35 b 133 -150 160 -101 151 -131 b 47 -181 114 -171 85 -181 b 0 -174 38 -181 13 -178 z "},"Ẅ":{"ha":1368,"x_min":0,"x_max":0,"o":"m 336 0 l 468 0 l 683 615 l 900 0 l 1032 0 l 1354 972 l 1165 972 l 964 365 l 750 972 l 618 972 l 404 365 l 203 972 l 14 972 z m 426 1169 b 538 1061 426 1108 476 1061 b 649 1169 599 1061 649 1108 b 538 1278 649 1231 599 1278 b 426 1169 476 1278 426 1231 z m 718 1169 b 829 1061 718 1108 768 1061 b 940 1169 890 1061 940 1108 b 829 1278 940 1231 890 1278 b 718 1169 768 1278 718 1231 z "},"ẅ":{"ha":1183,"x_min":0,"x_max":0,"o":"m 592 392 l 761 0 l 886 0 l 1169 674 l 988 674 l 822 281 l 654 674 l 529 674 l 360 281 l 196 674 l 14 674 l 297 0 l 422 0 z m 335 892 b 446 783 335 831 385 783 b 557 892 507 783 557 831 b 446 1000 557 953 507 1000 b 335 892 385 1000 335 953 z m 626 892 b 738 783 626 831 676 783 b 849 892 799 783 849 831 b 738 1000 849 953 799 1000 b 626 892 676 1000 626 953 z "},"Ẋ":{"ha":944,"x_min":0,"x_max":0,"o":"m 354 1190 b 472 1075 354 1125 407 1075 b 590 1190 538 1075 590 1125 b 472 1306 590 1256 538 1306 b 354 1190 407 1306 354 1256 z m 882 972 l 667 972 l 472 665 l 278 972 l 63 972 l 357 518 l 21 0 l 236 0 l 472 369 l 708 0 l 924 0 l 586 518 z "},"ẋ":{"ha":758,"x_min":0,"x_max":0,"o":"m 246 674 l 39 674 l 265 360 l 7 0 l 221 0 l 379 228 l 538 0 l 751 0 l 493 360 l 719 674 l 513 674 l 379 482 z m 261 913 b 379 797 261 847 314 797 b 497 913 444 797 497 847 b 379 1028 497 978 444 1028 b 261 913 314 1028 261 978 z "},"Ỳ":{"ha":868,"x_min":0,"x_max":0,"o":"m 861 972 l 647 972 l 435 631 l 221 972 l 7 972 l 340 440 l 340 0 l 528 0 l 528 440 z m 208 1278 l 375 1056 l 500 1056 l 403 1278 z "},"ỳ":{"ha":796,"x_min":0,"x_max":0,"o":"m 318 -333 l 782 674 l 592 674 l 410 269 l 213 674 l 14 674 l 315 68 l 129 -333 z m 181 1000 l 347 778 l 472 778 l 375 1000 z "}}}
